<?xml version="1.0" encoding="utf-8"?>
<!-- Generator: Adobe Illustrator 23.0.5, SVG Export Plug-In . SVG Version: 6.00 Build 0)  -->
<svg version="1.1" id="Layer_1" xmlns="http://www.w3.org/2000/svg" xmlns:xlink="http://www.w3.org/1999/xlink" x="0px" y="0px"
	 viewBox="0 0 480 128" style="enable-background:new 0 0 480 128;" xml:space="preserve">
<style type="text/css">
	.st0{fill:#E1AA4C;}
</style>
<g transform="translate(0.000000,789.000000) scale(0.100000,-0.100000)">
	<path class="st0" d="M385.9,7830c-130.1-40.3-194.9-62-198.5-66.8c-10.5-14.5-3.6-35.4,13.3-41.9c8.1-3.2,47.1,7.6,200.9,54.4
		c105.5,32.2,193.7,58.4,196.5,58.4c2.4,0,90.6-26.2,195.7-58.4c105.1-32.2,195.7-58.4,201.7-58.4c14.1,0,24.2,11.3,24.2,27.4
		c0,14.5-7.2,23-25,28.6c-148.2,47.1-388.1,117.2-400.2,116.8C585.7,7889.5,491.8,7862.6,385.9,7830z"/>
	<path class="st0" d="M33.6,7717.7c-13.3-13.3-18.5-64.8-18.5-183.6c0-124,4.8-165.1,30.2-266.1c53.6-211,167.9-390.2,336.2-526.3
		c75.3-60.8,192.1-131.7,216.6-131.7c9.3,0,29,8.9,62.8,28.2c97,55.6,162.7,105.1,233.9,176.8c169.5,169.9,264.9,384.1,286.3,642.5
		c8.1,96.2-2.8,242.4-19.3,260.5c-8.5,9.3-30.2,9.3-38.7,0.4c-3.2-4-54-106.7-112.7-228.7L904,7268.3H604.6H305.4L190.3,7493
		c-63.6,123.6-118,226.7-121.2,228.7C59.4,7727.7,41.7,7725.7,33.6,7717.7z M276,7201.9c111.5-218.2,214.2-418.7,227.9-446.1
		l24.6-49.5l-16.9,11.3c-277.4,180-428.8,447.7-444.5,786.7c-2.4,49.9,0,100.3,4.4,95.4C71.9,7599.3,164.1,7420.1,276,7201.9z
		 M1122.3,7428.2c-29-255.3-138.5-467.1-321.7-623.7c-39.9-34.2-126.4-96.6-128.8-93c-0.8,0.4,62,119.2,138.9,262.9
		c88.6,165.5,172.3,328.6,227.9,443.7l87.8,182.4l1.2-59.6C1128.3,7505.9,1125.9,7460,1122.3,7428.2z M869.8,7206.3
		c-6-17.7-271.4-506.9-273.4-504.9c-1.2,2-43.1,82.1-92.2,178.4c-49.1,96.3-107.5,210.1-129.6,252.8l-39.9,77.3H603
		C769.6,7209.9,870.6,7208.3,869.8,7206.3z"/>
	<path class="st0" d="M1402,7453.5c-15.6-8.2-23.1-15.6-30.5-30.2c-6.4-12.5-6.8-23.1-6.8-173.5c0-150.4,0.3-161.1,6.8-173.5
		c7.8-14.9,15.3-22.4,31.2-30.5c9.9-5,32.7-5.7,196.6-5.7h184.8v24.9v24.9h-178.9c-168.9,0-179.6,0.3-184.8,6.4
		c-5.4,6.1-6.1,21.7-6.1,154.3c0,138.3,0.3,147.9,6.4,153.2s23.8,6.1,184.8,6.1h178.5v24.9v24.9h-185.6
		C1435.8,7459.2,1411.2,7458.5,1402,7453.5z"/>
	<path class="st0" d="M2050.9,7249.8V7040h193.8h193.7v24.9v24.9h-168.9h-168.9v67.6v67.6h135.1h135.1v24.9v24.9h-135.1h-135.1v67.6
		v67.6h168.9h168.9v24.9v24.9h-193.8h-193.8v-210.2H2050.9z"/>
	<path class="st0" d="M2705,7249.8V7040h24.9h24.9v78.5v78.9l13.5-2.4c7.1-1,47-2.1,87.9-2.1l74.7-0.3l63.6-76.4l63.3-76.1h33.8
		c22,0,32.7,1,31.2,3.6c-1.4,2.1-29.5,36.2-62.9,75.7l-60.5,71.8l38.8,2.1c24.1,1.4,43,4.7,49.8,7.8c15.3,7.8,32,28.4,36.2,44.1
		c5,17.4,5,148.2,0.3,165.4c-5,17-18.9,33.4-35.9,42c-12.8,6.8-22,7.1-198.7,7.1h-184.8v-209.8H2705z M3068.3,7403.7
		c5.7-5.4,6.4-12.5,6.4-75.1c0-59.8-0.7-70.4-6.1-76.1c-5.4-6.1-14.9-6.4-152.9-6.4c-142.2,0-147.2,0.3-153.9,7.1
		c-6.8,6.8-7.1,11.8-7.1,72.5c0,60.5,0.3,65.7,7.5,74.7l7.1,9.2h146.1C3046.7,7409.8,3062.4,7409.1,3068.3,7403.7z"/>
	<path class="st0" d="M3373.4,7434.6v-24.9h92.4h92.4v-184.8V7040h26.7h26.7v184.8v184.8h92.4h92.4v24.9v24.9H3585h-211.5V7434.6z"
		/>
	<path class="st0" d="M4045.4,7249.8V7040h24.9h24.9v209.8v209.8h-24.9h-24.9V7249.8z"/>
	<path class="st0" d="M4383.1,7249.8V7040h26.7h26.7v92.4v92.4h65l64.7-0.3l76.4-91.4l76.8-91.4l32.7-1c18.2-0.3,32.7,0.3,32.7,1.7
		c-0.3,1.4-38.8,48.4-85.3,104.2c-47,55.5-85.3,102.1-85.3,103.1c0,1.4,38.3,48,85.3,104.2c47,55.8,85.3,102.8,85.3,103.8
		c0,1-14.6,1.4-32.7,1l-32.7-1l-76.8-91.4l-76.4-91.4l-64.7-0.3h-65v92.4v92.4h-26.7h-26.7V7249.8z"/>
</g>
</svg>
