<svg xmlns="http://www.w3.org/2000/svg" xmlns:xlink="http://www.w3.org/1999/xlink" id="Layer_1" x="0" y="0" version="1.1" viewBox="0 0 512 512" xml:space="preserve" style="enable-background:new 0 0 512 512"><style type="text/css">.st0{fill:none}.st1{fill:#fff}</style><rect width="512" height="512" class="st0"/><g><g><g><path d="M285.7,6c-10.6,0-19.3,8.6-19.3,19.3v202c0,10.6,8.6,19.3,19.3,19.3h201.1c10.6,0,19.3-8.6,19.3-19.3 C506,105.3,407.2,6,285.7,6z M466.5,208H304.9V45.5c41.1,4.4,79.8,22.9,109.2,52.6C443.7,127.8,462.1,166.6,466.5,208z" class="st1"/></g></g></g><g><g><g><path d="M316.9,467.2l-69.4-186V83.7c0-10.6-8.6-19.3-19.3-19.3c-58.8,0-114.3,22.8-156.5,64.3 C29.4,170.4,6,225.8,6,284.7c0,58.7,23.2,114.2,65.4,156.1c42.2,42,97.9,65.1,156.8,65.1c26.6,0,52.6-4.7,77.4-14 C315.5,488.2,320.6,477.1,316.9,467.2z M209,103.9v180.8c0,2.3,0.4,4.6,1.2,6.7l63.5,170.3c-14.8,3.8-30,5.8-45.5,5.8 c-101.3,0-183.7-82-183.7-182.7c0-46.1,17.5-90,49.3-123.8C124.3,128.6,165,108.5,209,103.9z" class="st1"/></g></g></g><g><g><g><path d="M486.7,265.5H285.7c-6.3,0-12.2,3.1-15.8,8.3c-3.6,5.2-4.4,11.8-2.2,17.7l70.6,189.2 c1.8,4.8,5.4,8.7,10.1,10.8c2.5,1.2,5.3,1.7,8,1.7c2.3,0,4.6-0.4,6.8-1.2C448.6,459.8,506,376.5,506,284.7 C506,274.1,497.4,265.5,486.7,265.5z M466.5,303.9c-3.2,30.3-14.1,59.5-31.5,84.8c-17.4,25.3-40.8,45.8-67.8,59.4l-53.8-144.2 H466.5z" class="st1"/></g></g></g></svg>