<svg xmlns="http://www.w3.org/2000/svg" xmlns:xlink="http://www.w3.org/1999/xlink" id="Layer_1" x="0" y="0" version="1.1" viewBox="0 0 512 512" xml:space="preserve" style="enable-background:new 0 0 512 512"><style type="text/css">.st0{fill:#fff}.st1{fill:none}</style><g><g><g><path d="M492.5,237.7l-94.2-28.5V69.1c0-17.2-5.7-32-17-44c-9-9.5-18.9-14.4-23.7-16.8L356.9,8 c-9.4-4.7-21-0.9-25.7,8.6c-4.7,9.4-0.9,21,8.6,25.7c0.2,0.1,0.6,0.3,1,0.5c12.7,5.7,19.2,14.5,19.2,26.3v128.7l-54-16.2v-56.4 c0-40.3-32.8-73-73-73H25.2C14.6,52.2,6,60.8,6,71.3c0,10.6,8.6,19.2,19.2,19.2h11.6v205.9C16.9,319.4,6,348.7,6,379.1 C6,449.1,62.9,506,132.9,506c27.7,0,54.1-8.8,76.2-25.5c20.3-15.3,35.7-36.6,43.9-60.5l61,10.9c1.4,19.7,9.8,38,24,51.9 c15.2,14.9,35.2,23.1,56.5,23.1c37.3,0,69.7-25.7,78.4-61.6h13.9c10.6,0,19.2-8.6,19.2-19.2V256 C506,247.5,500.6,240.2,492.5,237.7z M198.2,90.5h34.7c19.1,0,34.7,15.6,34.7,34.7v44.9l-69.4-20.8V90.5z M132.9,467.7 c-48.8,0-88.6-39.7-88.6-88.6c0-48.8,39.7-88.6,88.6-88.6c48.8,0,88.6,39.7,88.6,88.6C221.5,428,181.7,467.7,132.9,467.7z M394.5,467.7c-23.4,0-42.4-19-42.4-42.4c0-23.4,19-42.4,42.4-42.4c23.4,0,42.4,19,42.4,42.4 C436.9,448.7,417.9,467.7,394.5,467.7z M467.7,391.2c-13-27.9-41.3-46.7-73.2-46.7c-32.1,0-61.3,19.4-74,48.6l-60.7-10.9 c0-1.1,0-2.2,0-3.2c0-70-56.9-126.9-126.9-126.9c-20.1,0-40,4.8-57.8,13.9V90.5h84.8v73.2c0,8.5,5.7,16.1,13.8,18.4l294,88.1 V391.2z" class="st0"/><ellipse cx="394.5" cy="425.3" class="st0" rx="19.2" ry="19.2" transform="matrix(0.2298 -0.9732 0.9732 0.2298 -110.0415 711.5278)"/><path d="M132.9,313.8c-36,0-65.3,29.3-65.3,65.3c0,36,29.3,65.3,65.3,65.3c36,0,65.3-29.3,65.3-65.3 C198.2,343.1,168.9,313.8,132.9,313.8z M132.9,406.1c-14.9,0-27-12.1-27-27c0-14.9,12.1-27,27-27s27,12.1,27,27 C159.9,394,147.8,406.1,132.9,406.1z" class="st0"/></g></g><path d="M428.6,333.4c8.1,0,14.6-6.6,14.6-14.6v-31.4c0-8.1-6.6-14.6-14.6-14.6c-8.1,0-14.6,6.6-14.6,14.6v31.4 C413.9,326.9,420.5,333.4,428.6,333.4L428.6,333.4z M428.6,333.4L428.6,333.4z" class="st0"/><path d="M334.4,303.5c8.1,0,14.6-6.6,14.6-14.6v-31.4c0-8.1-6.6-14.6-14.6-14.6c-8.1,0-14.6,6.6-14.6,14.6v31.4 C319.8,296.9,326.4,303.5,334.4,303.5L334.4,303.5z M334.4,303.5L334.4,303.5z" class="st0"/><path d="M381.5,317.7c8.1,0,14.6-6.6,14.6-14.6v-31.4c0-8.1-6.6-14.6-14.6-14.6c-8.1,0-14.6,6.6-14.6,14.6v31.4 C366.9,311.2,373.4,317.7,381.5,317.7L381.5,317.7z M381.5,317.7L381.5,317.7z" class="st0"/></g><rect width="512" height="512" class="st1"/></svg>