<svg xmlns="http://www.w3.org/2000/svg" xmlns:xlink="http://www.w3.org/1999/xlink" id="Layer_1" x="0" y="0" version="1.1" viewBox="0 0 512 512" xml:space="preserve" style="enable-background:new 0 0 512 512"><style type="text/css">.st0{fill:#6161ff}.st1{fill:none}</style><g><g><g><path d="M426.3,242.8l-67.8-20.5V121.4c0-12.4-4.1-23-12.2-31.7c-6.5-6.8-13.6-10.4-17.1-12.1l-0.5-0.2 c-6.8-3.4-15.1-0.6-18.5,6.2c-3.4,6.8-0.6,15.1,6.2,18.5c0.1,0.1,0.4,0.2,0.7,0.4c9.1,4.1,13.8,10.4,13.8,18.9v92.7L292,202.4 v-40.6c0-29-23.6-52.6-52.6-52.6H89.8c-7.6,0-13.8,6.2-13.8,13.8c0,7.6,6.2,13.8,13.8,13.8h8.4v148.2 C83.9,301.6,76,322.7,76,344.6c0,50.4,41,91.4,91.4,91.4c19.9,0,39-6.3,54.9-18.4c14.6-11,25.7-26.4,31.6-43.6l43.9,7.8 c1,14.2,7.1,27.4,17.3,37.4c10.9,10.7,25.3,16.6,40.7,16.6c26.9,0,50.2-18.5,56.4-44.4h10c7.6,0,13.8-6.2,13.8-13.8V256 C436,249.9,432.1,244.6,426.3,242.8z M214.4,136.8h25c13.8,0,25,11.2,25,25v32.3l-50-15L214.4,136.8L214.4,136.8z M167.4,408.4 c-35.1,0-63.8-28.6-63.8-63.8c0-35.1,28.6-63.8,63.8-63.8c35.1,0,63.8,28.6,63.8,63.8S202.5,408.4,167.4,408.4z M355.7,408.4 c-16.8,0-30.5-13.7-30.5-30.5s13.7-30.5,30.5-30.5s30.5,13.7,30.5,30.5S372.6,408.4,355.7,408.4z M408.4,353.3 c-9.4-20.1-29.7-33.6-52.7-33.6c-23.1,0-44.1,14-53.3,35l-43.7-7.8c0-0.8,0-1.6,0-2.3c0-50.4-41-91.4-91.4-91.4 c-14.5,0-28.8,3.5-41.6,10V136.8h61.1v52.7c0,6.1,4.1,11.6,9.9,13.2l211.7,63.4V353.3z" class="st0"/><ellipse cx="355.7" cy="377.9" class="st0" rx="13.8" ry="13.8"/><path d="M167.4,297.6c-25.9,0-47,21.1-47,47s21.1,47,47,47s47-21.1,47-47C214.4,318.7,193.3,297.6,167.4,297.6z M167.4,364.1c-10.7,0-19.4-8.7-19.4-19.4s8.7-19.4,19.4-19.4s19.4,8.7,19.4,19.4S178.1,364.1,167.4,364.1z" class="st0"/></g></g><path d="M380.3,311.7c5.8,0,10.5-4.8,10.5-10.5v-22.6c0-5.8-4.8-10.5-10.5-10.5c-5.8,0-10.5,4.8-10.5,10.5v22.6 C369.7,307,374.4,311.7,380.3,311.7L380.3,311.7z M380.3,311.7L380.3,311.7z" class="st0"/><path d="M312.4,290.2c5.8,0,10.5-4.8,10.5-10.5v-22.6c0-5.8-4.8-10.5-10.5-10.5c-5.8,0-10.5,4.8-10.5,10.5v22.6 C301.9,285.4,306.7,290.2,312.4,290.2L312.4,290.2z M312.4,290.2L312.4,290.2z" class="st0"/><path d="M346.4,300.4c5.8,0,10.5-4.8,10.5-10.5v-22.6c0-5.8-4.8-10.5-10.5-10.5c-5.8,0-10.5,4.8-10.5,10.5v22.6 C335.8,295.7,340.5,300.4,346.4,300.4L346.4,300.4z M346.4,300.4L346.4,300.4z" class="st0"/></g><rect width="512" height="512" class="st1"/></svg>