<?xml version="1.0" encoding="utf-8"?>
<!-- Generator: Adobe Illustrator 23.0.5, SVG Export Plug-In . SVG Version: 6.00 Build 0)  -->
<svg version="1.1" id="bold" xmlns="http://www.w3.org/2000/svg" xmlns:xlink="http://www.w3.org/1999/xlink" x="0px" y="0px"
	 viewBox="0 0 512 512" style="enable-background:new 0 0 512 512;" xml:space="preserve">
<style type="text/css">
	.st0{fill:#6161FF;}
	.st1{fill:none;}
</style>
<path class="st0" d="M384.3,141.6c-2.5,2.8-5.8,4.1-9.2,4.1c-2.8,0-5.8-1-8.1-3.1c-31-27.1-70.6-42.1-111.5-42.1
	c-27.5,0-54.5,6.8-78.5,19.6l9.5,9.5c3.5,3.5,4.6,8.8,2.7,13.3c-1.9,4.6-6.4,7.6-11.4,7.6h-40.9c-6.7,0-12.3-5.5-12.3-12.3V97.5
	c0-5,3-9.4,7.6-11.4c4.6-1.9,9.9-0.8,13.3,2.7l13.3,13.3c29.2-17,62.7-26.2,96.6-26.2c46.9,0,92.3,17.1,127.7,48.2
	C388.2,128.7,388.8,136.4,384.3,141.6z"/>
<path class="st0" d="M386.3,371.5v40.9c0,5-3,9.4-7.6,11.4c-1.5,0.6-3.1,0.9-4.7,0.9c-3.2,0-6.4-1.2-8.7-3.6l-11.3-11.3
	c-29.2,17-62.7,26.2-96.7,26.2c-46.9,0-92.3-17.1-127.7-48.2c-5.1-4.4-5.6-12.2-1.2-17.3c4.4-5.1,12.2-5.6,17.3-1.2
	c31,27.1,70.6,42.1,111.5,42.1c27.5,0,54.5-6.9,78.7-19.7l-11.6-11.6c-3.5-3.5-4.6-8.8-2.7-13.3c1.9-4.6,6.4-7.6,11.4-7.6h40.9
	C380.9,359.2,386.3,364.7,386.3,371.5z"/>
<g>
	<g>
		<path class="st0" d="M314.8,229.6c-1.4-2.8-4.2-4.6-7.4-4.6h-32.6l28.4-57.2c1.3-2.5,1.1-5.5-0.4-7.9c-1.5-2.4-4.1-3.9-6.9-3.9
			h-68.6c-3.7,0-7,2.5-7.9,6.2L196.6,254c-0.6,2.4-0.1,5,1.5,7c1.6,2,3.9,3.1,6.4,3.1h23.9l-20.4,81.7c-0.2,0.6-0.2,1.3-0.2,1.9
			c0,3.1,1.7,6,4.5,7.3c1.1,0.6,2.4,0.8,3.6,0.8c2.4,0,4.8-1.1,6.4-3.1l91.5-114.7C315.8,235.8,316.1,232.4,314.8,229.6z
			 M232.9,313.5l13.8-55.5c0.6-2.4,0.1-5-1.5-7c-1.6-2-3.9-3.1-6.4-3.1H215l18.8-75.5h49.1l-28.4,57.2c-1.3,2.5-1.1,5.5,0.4,7.9
			c1.5,2.4,4.1,3.9,6.9,3.9h28.8L232.9,313.5z"/>
	</g>
</g>
<rect class="st1" width="512" height="512"/>
</svg>
