<svg width="220" height="26" viewBox="0 0 220 26" fill="none" xmlns="http://www.w3.org/2000/svg">
<g clip-path="url(#clip0)">
<path d="M33.2194 6.70093V14.1658H25.6566V7.66089C25.6566 7.1305 25.2153 6.70093 24.6704 6.70093H22.1172V24.4887C22.1172 25.0191 22.5585 25.4486 23.1034 25.4486H25.6566V17.175H33.2194V24.4865C33.2194 25.0169 33.6607 25.4464 34.2056 25.4464H36.7588V7.66089C36.7588 7.1305 36.3175 6.70093 35.7726 6.70093H33.2194Z" fill="#2D3338"/>
<path d="M48.0633 11.1206V20.0035C48.0633 20.8101 47.64 21.575 46.9218 21.9804C44.9179 23.1069 42.8443 21.6999 42.8443 19.8435V12.0806C42.8443 11.5502 42.403 11.1206 41.8581 11.1206H39.2959V20.1591C39.2959 23.0675 41.741 25.4477 44.7288 25.4477H46.181C49.1688 25.4477 51.6139 23.0675 51.6139 20.1591V12.0806C51.6139 11.5502 51.1726 11.1206 50.6278 11.1206H48.0633Z" fill="#2D3338"/>
<path d="M87.2264 25.4477H89.7796V12.8674C89.7796 12.337 89.3383 11.9075 88.7934 11.9075H86.2402V24.4878C86.2402 25.0182 86.6815 25.4477 87.2264 25.4477Z" fill="#01943F"/>
<path d="M88.0097 10.5447C89.1003 10.5447 89.9843 9.6841 89.9843 8.62255C89.9843 7.561 89.1003 6.70044 88.0097 6.70044C86.9192 6.70044 86.0352 7.561 86.0352 8.62255C86.0352 9.6841 86.9192 10.5447 88.0097 10.5447Z" fill="#01943F"/>
<path d="M60.875 11.1118C57.1623 11.1118 54.125 13.6958 54.125 17.3099V19.2649C54.125 22.879 57.1623 25.4477 60.875 25.4477C64.5878 25.4477 67.6251 22.879 67.6251 19.2649V17.3099C67.6251 13.6958 64.5878 11.1118 60.875 11.1118ZM64.0677 19.4994C64.0677 21.2089 62.6312 22.3464 60.875 22.3464C59.1189 22.3464 57.6824 21.2089 57.6824 19.4994V17.0601C57.6824 15.3505 59.1189 14.2131 60.875 14.2131C62.6312 14.2131 64.0677 15.3505 64.0677 17.0601V19.4994Z" fill="#2D3338"/>
<path d="M76.9395 11.1118C75.78 11.1118 74.6857 11.3638 73.7288 11.8219V7.64453C73.7288 7.11414 73.2875 6.68457 72.7427 6.68457H70.1895V19.2649C70.1895 22.879 73.2267 25.4476 76.9395 25.4476C80.6522 25.4476 83.6895 22.879 83.6895 19.2649V17.3099C83.6895 13.6958 80.6522 11.1118 76.9395 11.1118ZM80.1321 19.4994C80.1321 21.2089 78.6957 22.3464 76.9395 22.3464C75.1833 22.3464 73.7468 21.2089 73.7468 19.4994V17.06C73.7468 15.3505 75.1833 14.213 76.9395 14.213C78.6957 14.213 80.1321 15.3505 80.1321 17.06V19.4994Z" fill="#01943F"/>
<path d="M11.438 8.00218C11.438 4.26973 9.5692 1.05891 8.1485 0.0134761C8.14174 0.0112844 8.04043 -0.0456995 8.04943 0.103335C8.04943 0.105527 8.04718 0.105527 8.04718 0.107719C7.9301 7.31618 4.14756 9.26897 2.06716 11.9012C-2.73307 17.9744 1.73168 24.6327 6.27749 25.8622C8.8217 26.5504 5.68984 24.6437 5.28682 20.6153C4.79824 15.7476 11.438 12.0327 11.438 8.00218Z" fill="#2D3338"/>
<path d="M13.6457 10.4566C13.6164 10.4368 13.5759 10.4237 13.5466 10.4697C13.4678 11.3771 12.5154 13.3189 11.3086 15.1007C7.21536 21.1454 9.54793 24.0604 10.8606 25.6252C11.6216 26.5348 10.8606 25.6252 12.7631 24.696C12.9117 24.6236 16.4781 22.6774 16.8631 18.2436C17.2391 13.9501 14.5891 11.2434 13.6457 10.4566Z" fill="#01943F"/>
<path d="M109.629 22.1229H100.433V17.356H107.546C107.623 17.356 108.082 17.3648 108.638 17.3823L108.784 17.3867V15.2936C108.784 14.9802 108.663 14.6887 108.44 14.4695C108.217 14.2504 107.936 14.1189 107.609 14.1386H100.433V10.0489H110.525V7.87914C110.525 7.24136 110.009 6.72412 109.377 6.72412H97.0112V6.86658C97.0112 6.86658 97.0044 20.3981 96.9932 24.2905C96.9932 24.5995 97.1102 24.8888 97.3264 25.108C97.5425 25.3272 97.833 25.4477 98.1414 25.4477H110.777V23.2779C110.777 22.6402 110.261 22.1229 109.629 22.1229Z" fill="#2D3338"/>
<path d="M128.265 11.5917C127.074 10.0795 124.689 9.5951 123.052 9.5951C119.671 9.5951 117.147 11.9709 117.147 15.5587C117.147 19.9026 119.614 22.0899 123.19 22.0899C125.074 22.0899 127.182 21.3623 128.208 20.3081H128.348V22.8636C128.348 23.9463 126.238 25.3007 122.692 25.3007C117.646 25.3007 113.321 21.6297 113.321 16.0978C113.321 10.4038 117.23 6.38208 123.025 6.38208C126.13 6.38208 128.404 7.4582 128.404 8.29981V11.5895H128.265V11.5917Z" fill="#2D3338"/>
<path d="M139.414 6.72632C134.575 6.72632 130.926 10.1607 130.926 14.7172V17.4503C130.926 21.9936 134.575 25.4192 139.414 25.4192C144.253 25.4192 147.902 21.9936 147.902 17.4503V14.7172C147.902 10.1607 144.253 6.72632 139.414 6.72632ZM144.419 17.779C144.419 20.4331 142.267 22.0791 139.412 22.0791C136.557 22.0791 134.404 20.4331 134.404 17.779V14.3687C134.404 11.7146 136.557 10.0336 139.412 10.0336C142.267 10.0336 144.419 11.7146 144.419 14.3687V17.779Z" fill="#2D3338"/>
<path d="M196.791 12.1179C195.726 11.2895 194.166 10.8687 192.157 10.8687C191.41 10.8687 190.626 10.9213 189.825 11.0265C189.183 11.1097 188.271 11.2303 187.641 11.3705C187.384 11.4275 187.339 11.6226 187.339 11.8571V13.7266C187.339 14.0598 187.344 14.3622 187.704 14.2767C188.379 14.1167 189.69 13.834 190.046 13.777C190.608 13.6872 191.223 13.6411 191.867 13.6411C192.873 13.6411 193.639 13.8165 194.148 14.1606C194.623 14.4849 194.866 15.103 194.866 15.9972V16.1046C194.688 16.0893 194.49 16.0739 194.276 16.0586C193.875 16.0323 193.362 16.0191 192.734 16.0191C191.878 16.0191 191.05 16.1134 190.271 16.2997C189.48 16.4881 188.769 16.7818 188.159 17.1719C187.537 17.5686 187.038 18.0727 186.677 18.6689C186.313 19.2716 186.128 19.9751 186.128 20.7619C186.128 21.5619 186.286 22.2567 186.599 22.8309C186.914 23.4095 187.366 23.8917 187.943 24.2621C188.51 24.6303 189.208 24.8977 190.014 25.062C190.798 25.2198 191.685 25.3009 192.651 25.3009C193.353 25.3009 198.421 25.2308 198.421 22.8835C198.421 20.1636 198.421 16.098 198.421 16.098C198.419 14.2986 197.872 12.9595 196.791 12.1179ZM194.866 18.7806V22.3947C194.589 22.4473 194.283 22.489 193.95 22.5175C193.137 22.592 192.405 22.6051 191.559 22.5306C191.228 22.5021 190.921 22.4189 190.649 22.2874C190.386 22.1602 190.172 21.9783 189.992 21.7329C189.82 21.5005 189.735 21.1564 189.735 20.7115C189.735 20.0168 189.989 19.5214 190.512 19.1927C191.068 18.842 191.912 18.6645 193.02 18.6645C193.319 18.6645 193.682 18.682 194.112 18.7149C194.398 18.7368 194.648 18.7587 194.866 18.7806Z" fill="#2D3338"/>
<path d="M213.944 10.9321C212.546 10.9321 210.994 11.2586 210.738 11.9578V11.6268C210.738 11.1249 210.321 10.7195 209.806 10.7195H206.984V24.3956C206.984 24.8975 207.401 25.303 207.917 25.303H210.711V17.494C210.711 14.9604 212.217 14.1056 213.37 14.1056C214.986 14.1056 216.301 15.0393 216.301 17.3866V24.3934C216.301 24.8953 216.718 25.3008 217.233 25.3008H220V17.2266C220 13.1457 217.753 10.9321 213.944 10.9321Z" fill="#2D3338"/>
<path d="M201.93 25.1342H204.483V12.554C204.483 12.0236 204.041 11.594 203.497 11.594H200.943V24.1743C200.943 24.7047 201.385 25.1342 201.93 25.1342Z" fill="#2D3338"/>
<path d="M202.713 10.2285C203.803 10.2285 204.687 9.36794 204.687 8.30639C204.687 7.24484 203.803 6.38428 202.713 6.38428C201.622 6.38428 200.738 7.24484 200.738 8.30639C200.738 9.36794 201.622 10.2285 202.713 10.2285Z" fill="#2D3338"/>
<path d="M168.037 11.5917C166.846 10.0795 164.462 9.5951 162.825 9.5951C159.443 9.5951 156.919 11.9709 156.919 15.5587C156.919 19.9026 159.387 22.0899 162.962 22.0899C164.847 22.0899 166.954 21.3623 167.981 20.3081H168.12V22.8636C168.12 23.9463 166.011 25.3007 162.465 25.3007C157.419 25.3007 153.094 21.6297 153.094 16.0978C153.094 10.4038 157.002 6.38208 162.798 6.38208C165.903 6.38208 168.177 7.4582 168.177 8.29981V11.5895H168.037V11.5917Z" fill="#2D3338"/>
<path d="M177.593 11.1821C176.208 11.1821 174.673 11.5043 174.418 12.199V7.35977C174.418 6.86445 174.004 6.46118 173.495 6.46118H170.701V24.4045C170.701 24.8999 171.115 25.3031 171.624 25.3031H174.391V17.6804C174.391 15.1709 175.884 14.325 177.023 14.325C178.624 14.325 179.928 15.2499 179.928 17.5752V24.4023C179.928 24.8977 180.342 25.3009 180.851 25.3009H183.591V17.4174C183.591 13.376 181.364 11.1821 177.593 11.1821Z" fill="#2D3338"/>
</g>
<defs>
<clipPath id="clip0">
<rect width="220" height="26" fill="white"/>
</clipPath>
</defs>
</svg>
