<svg xmlns="http://www.w3.org/2000/svg" xmlns:xlink="http://www.w3.org/1999/xlink" id="Layer_1" x="0" y="0" version="1.1" viewBox="0 0 512 512" xml:space="preserve" style="enable-background:new 0 0 512 512"><style type="text/css">.st0{fill:#fff}.st1{fill:none}</style><g><g><path d="M494.1,131.1L459.9,28.7c-2.3-7-8.8-11.7-16.2-11.7H68.3c-7.3,0-13.9,4.7-16.2,11.7L17.9,131.1 c-0.5,1.6-0.8,3.3-0.9,4.9c0,0.2,0,0.3,0,0.5v17.1c0.1,26.7,12.7,51.9,34.1,67.9c0,0.1,0,0.2,0,0.4v221.9 c0,28.3,22.9,51.2,51.2,51.2h307.2c28.3,0,51.2-22.9,51.2-51.2V221.9c0-0.1,0-0.2,0-0.4c21.4-16,34.1-41.2,34.1-67.9v-17.1 c0-0.2,0-0.3,0-0.5C494.9,134.4,494.6,132.7,494.1,131.1z M375.5,51.2h56l22.8,68.3h-78.7V51.2z M273.1,51.2h68.3v68.3h-68.3V51.2 z M170.7,51.2h68.3v68.3h-68.3V51.2z M80.6,51.2h56v68.3H57.8L80.6,51.2z M290.1,460.8h-68.3V324.3h68.3L290.1,460.8L290.1,460.8z M426.7,443.7c0,9.4-7.6,17.1-17.1,17.1h-85.3V307.2c0-9.4-7.6-17.1-17.1-17.1H204.8c-9.4,0-17.1,7.6-17.1,17.1v153.6h-85.3 c-9.4,0-17.1-7.6-17.1-17.1V237.2c24,4.9,48.9-0.8,68.3-15.7c30.5,22.4,71.9,22.4,102.4,0c30.5,22.4,71.9,22.4,102.4,0 c19.4,14.9,44.3,20.6,68.3,15.7L426.7,443.7L426.7,443.7z M409.6,204.8c-14.8,0-28.8-6.5-38.3-17.7c-6.2-7.1-17-7.8-24.1-1.6 c-0.6,0.5-1.1,1-1.6,1.6c-19,21.2-51.5,23-72.7,4c-1.4-1.3-2.7-2.6-4-4c-6.7-7.1-17.8-7.4-24.9-0.8c-0.3,0.2-0.5,0.5-0.8,0.8 c-19,21.2-51.5,23-72.7,4c-1.4-1.3-2.7-2.6-4-4c-6.7-7.1-17.8-7.4-24.9-0.8c-0.3,0.2-0.5,0.5-0.8,0.8 c-9.6,11.2-23.6,17.7-38.3,17.7c-28.3,0-51.2-22.9-51.2-51.2h409.6C460.8,181.9,437.9,204.8,409.6,204.8z" class="st0"/></g></g><rect width="512" height="512" class="st1"/></svg>