<?xml version="1.0" encoding="utf-8"?>
<!-- Generator: Adobe Illustrator 23.0.5, SVG Export Plug-In . SVG Version: 6.00 Build 0)  -->
<svg version="1.1" id="Layer_1" xmlns="http://www.w3.org/2000/svg" xmlns:xlink="http://www.w3.org/1999/xlink" x="0px" y="0px"
	 viewBox="0 0 320 128" style="enable-background:new 0 0 320 128;" xml:space="preserve">
<style type="text/css">
	.st0{fill:#469FA2;}
	.st1{fill:#6BCAD2;}
</style>
<g transform="translate(-50.017 -515.51)">
	<path class="st0" d="M57.1,611.5l55.4,32l55.4-32v-64l-55.4-32l-55.4,32L57.1,611.5z"/>
	<path class="st1" d="M106.8,523.2l-40.2,23.2c0.1,0.7,0.1,1.4,0,2.1l40.2,23.2c3.4-2.5,8-2.5,11.4,0l40.2-23.2
		c-0.1-0.7-0.1-1.4,0-2.1l-40.2-23.2C114.8,525.7,110.2,525.7,106.8,523.2L106.8,523.2z M162.2,555L122,578.4
		c0.5,4.2-1.8,8.2-5.7,9.9v46.1c0.7,0.3,1.3,0.6,1.9,1.1l40.2-23.2c-0.5-4.2,1.8-8.2,5.7-9.9V556C163.4,555.8,162.8,555.4,162.2,555
		L162.2,555z M62.8,555.2c-0.6,0.4-1.2,0.8-1.9,1.1v46.4c3.9,1.7,6.2,5.7,5.7,9.9l40.2,23.2c0.6-0.4,1.2-0.8,1.9-1.1v-46.4
		c-3.9-1.7-6.2-5.7-5.7-9.9L62.8,555.2L62.8,555.2z"/>
</g>
<g transform="translate(-933.71 -584.21)">
	<g>
		<path class="st0" d="M1086.4,614.5h-8v67.6h8V614.5z"/>
		<path class="st0" d="M1121.2,646.9c-3.1,0-11.8-0.1-11.8-0.1v-25.2h14c8.3,0,14.4,3.2,14.4,11.2
			C1137.7,639.6,1136.5,646.9,1121.2,646.9z M1109.4,682.1v-28.9c3.4,0.3,8.2,0.6,11,0.6c20,0,25.5-8.6,25.5-21.2
			c0-13.1-9.8-18.1-22.7-18.1h-21.9v67.6L1109.4,682.1L1109.4,682.1z"/>
		<path class="st0" d="M1190.3,644.2h-27.9v-22.8h28.8l0.6-6.9h-37.4v67.6h8v-31.4h27.9V644.2L1190.3,644.2z"/>
		<path class="st0" d="M1201.5,671.1c6,3,13.8,5.2,22.4,5.2c9.6,0,14.7-4.3,14.7-13.4c0-5.5-2.2-9.2-10.8-11.3l-13.3-3.3
			c-9.4-2.3-15.2-7.3-15.2-16.3c0-13.1,9.8-18.8,24.6-18.8c8.2,0,15.6,2,20.3,4.9l-2.3,6.3c-3.6-1.9-10.7-4.3-18.1-4.3
			c-10.7,0-16.4,3.6-16.4,11.4c0,5.3,3.5,8.1,10,9.7l12.7,3.1c10.1,2.4,16.6,7.3,16.6,18.3c0,14.1-9.4,20.6-23.2,20.6
			c-11.8,0-20.2-3.1-24.3-5.6L1201.5,671.1L1201.5,671.1z"/>
	</g>
</g>
</svg>
