<svg xmlns="http://www.w3.org/2000/svg" xmlns:xlink="http://www.w3.org/1999/xlink" id="Layer_1" x="0" y="0" version="1.1" viewBox="0 0 512 512" xml:space="preserve" style="enable-background:new 0 0 512 512"><style type="text/css">.st0{fill:none}.st1{fill:#6161ff}</style><rect width="512" height="512" class="st0"/><g><path d="M436,357.3c0,22.6-19.8,43.1-55.8,57.7c-33.3,13.5-77.4,21-124.2,21s-90.8-7.5-124.2-21 c-36-14.6-55.8-35.2-55.8-57.7c0-15.2,9.1-29.8,26.3-42c2-1.5,4.5-2,7-1.6c2.5,0.4,4.6,1.8,6.1,3.8c3,4.2,2,10.1-2.2,13.1 c-8.4,6-18.4,15.5-18.4,26.7c0,14.2,16.1,28.9,44.1,40.3c31.1,12.7,72.7,19.6,117.1,19.6s86-7,117.1-19.6 c28-11.4,44.1-26.1,44.1-40.3c0-14.2-16.1-28.9-44.1-40.3c-31.1-12.7-72.7-19.6-117.1-19.6c-35.6,0-69.4,4.5-97.9,12.9 c-2.4,0.7-5,0.5-7.2-0.7c-2.2-1.2-3.8-3.2-4.5-5.6c-0.7-2.4-0.5-5,0.7-7.2c1.2-2.2,3.2-3.8,5.6-4.5c30.2-9,65.9-13.7,103.2-13.7 c46.8,0,90.8,7.5,124.2,21C416.2,314.1,436,334.6,436,357.3z" class="st1"/></g><g><path d="M133.8,319.1l-0.4,0.2c-1.2,0.5-2.5,0.8-3.8,0.8c-3.7,0-7.1-2.2-8.6-5.6c-2.1-4.7,0-10.3,4.8-12.4l0.4-0.2 c2.3-1,4.8-1.1,7.2-0.2c2.3,0.9,4.2,2.7,5.2,5C140.7,311.4,138.5,317,133.8,319.1z" class="st1"/></g><g><path d="M326,320.1c-18.8-6.6-43.7-10.3-70-10.3s-51.2,3.7-70,10.3c-28.1,9.9-34,23.1-34,32.4c0,9.3,5.9,22.5,34,32.4 c18.8,6.6,43.7,10.3,70,10.3s51.2-3.7,70-10.3c28.1-9.9,34-23.1,34-32.4C360,343.2,354.1,330,326,320.1z M256,376.4 c-52.8,0-85.2-15.5-85.2-23.9c0-8.4,32.4-23.9,85.2-23.9s85.2,15.5,85.2,23.9C341.2,360.9,308.8,376.4,256,376.4z" class="st1"/></g><g><path d="M281.3,336.3c-6.8-2.9-15.7-4.6-25.3-4.6s-18.5,1.6-25.3,4.6c-8.4,3.7-12.9,9.2-12.9,15.9 c0,6.7,4.4,12.2,12.9,15.9c6.8,2.9,15.7,4.6,25.3,4.6s18.5-1.6,25.3-4.6c8.4-3.7,12.9-9.2,12.9-15.9 C294.2,345.5,289.7,340,281.3,336.3z M256,356.4c-10.6,0-17.9-2.3-20.8-4.2c2.9-1.8,10.2-4.2,20.8-4.2s17.9,2.3,20.8,4.2 C273.9,354,266.6,356.4,256,356.4z" class="st1"/></g><g><path d="M314.3,159.4l-50.3-79c-1.7-2.7-4.7-4.3-7.9-4.3c-3.2,0-6.2,1.6-7.9,4.3l-50.3,79c-8.4,13.2-12.1,29-10.4,44.6 c1.7,15.6,8.7,30.2,19.8,41.3c13,13,30.4,20.2,48.8,20.2s35.8-7.2,48.8-20.2c11.1-11.1,18.1-25.7,19.8-41.3 C326.4,188.4,322.7,172.6,314.3,159.4z M291.5,232c-9.8,9.8-22.7,14.7-35.5,14.7c-12.9,0-25.7-4.9-35.5-14.7 c-16.8-16.8-19.6-42.5-6.9-62.5l42.4-66.6l42.4,66.6C311.1,189.5,308.3,215.2,291.5,232z" class="st1"/></g><g><path d="M292.7,199.6c-1.2,2.2-3.2,3.8-5.6,4.5c-0.8,0.2-1.7,0.4-2.6,0.4c-4.2,0-7.9-2.8-9-6.8 c-1.5-4.9,1.3-10.2,6.2-11.7c2.4-0.7,4.9-0.5,7.2,0.7s3.9,3.1,4.6,5.6l0.1,0.2C294.2,194.8,293.9,197.4,292.7,199.6z" class="st1"/></g><g><path d="M285.1,225.5c-7.8,7.8-18.1,12-29.1,12c-11,0-21.3-4.3-29.1-12c-1.8-1.8-2.8-4.1-2.8-6.6c0-2.5,1-4.9,2.8-6.6 c1.8-1.8,4.1-2.8,6.6-2.8c2.5,0,4.9,1,6.6,2.8c8.7,8.7,22.9,8.7,31.5,0c3.7-3.7,9.6-3.7,13.3,0 C288.7,215.9,288.7,221.9,285.1,225.5z" class="st1"/></g></svg>