<?xml version="1.0" encoding="utf-8"?>
<!-- Generator: Adobe Illustrator 23.0.5, SVG Export Plug-In . SVG Version: 6.00 Build 0)  -->
<svg version="1.1" id="Layer_1" xmlns:v="https://vecta.io/nano"
	 xmlns="http://www.w3.org/2000/svg" xmlns:xlink="http://www.w3.org/1999/xlink" x="0px" y="0px" viewBox="0 0 2000 2000"
	 style="enable-background:new 0 0 2000 2000;" xml:space="preserve">
<style type="text/css">
	.st0{fill:#4444C6;}
</style>
<g>
	<path class="st0" d="M1328.2,1511.2c0,85.8-46.4,155.4-103.6,155.4c-57.2,0-103.6-69.6-103.6-155.4s46.4-155.4,103.6-155.4
		C1281.8,1355.8,1328.2,1425.4,1328.2,1511.2z"/>
	<path class="st0" d="M878.9,1511.2c0,85.8-46.4,155.4-103.6,155.4s-103.6-69.6-103.6-155.4s46.4-155.4,103.6-155.4
		S878.9,1425.4,878.9,1511.2z"/>
	<path class="st0" d="M1999.9,1649.8l-0.2,14.5l-14.5,0c-81.8,0.1-105.4,0.1-114.3,0.1c-5.5,0-5.5,0-10.3,0
		c-9,0.1-32.8,0.3-131.6,0.9l-15.3,0.1l0.5-15.3c0-0.6,1.5-66.8-28.7-145.4c-17.6-45.9-42.5-87-73.9-122.3
		c-39.2-44.1-88.8-79.2-147.6-104.4c-117.9-50.6-197.7-94-267-145.4c-74-54.8-136.9-120.1-196.6-204.3
		c-59.9,84.8-123.1,150.4-197.5,205.5c-69.3,51.3-149.2,94.8-267,145.4c-58.7,25.2-108.4,60.3-147.6,104.4
		c-31.4,35.3-56.2,76.4-73.9,122.3c-30.2,78.7-28.7,144.8-28.7,145.4l0.5,15.2l-15.3-0.1c-98.9-0.6-122.7-0.8-131.6-0.9
		c-4.8,0-4.8,0-10.3,0c-8.9,0-32.5,0-114.3-0.1l-14.5,0l-0.2-14.5c-2-134.3,39.7-273.7,117.4-392.5
		c77.7-118.8,184.9-207,301.6-248.3c52.3-18.5,102.3-43.1,148.7-73.2c37.2-24.1,72.1-51.8,103.8-82.3c52.8-50.7,79.3-92.5,80.8-94.9
		c82.6-142.2,165.2-284.3,247.9-426.5c82.5,141.8,165,283.5,247.5,425.3c1.4,2.3,27.9,44.2,80.8,94.9
		c31.7,30.5,66.7,58.1,103.8,82.3c46.4,30.1,96.4,54.8,148.7,73.2c116.8,41.3,223.9,129.5,301.6,248.3
		C1960.3,1376.1,2001.9,1515.5,1999.9,1649.8z"/>
</g>
</svg>
