<?xml version="1.0" encoding="utf-8"?>
<!-- Generator: Adobe Illustrator 23.0.5, SVG Export Plug-In . SVG Version: 6.00 Build 0)  -->
<svg version="1.1" id="Layer_1" xmlns:v="https://vecta.io/nano"
	 xmlns="http://www.w3.org/2000/svg" xmlns:xlink="http://www.w3.org/1999/xlink" x="0px" y="0px" viewBox="0 0 200 130"
	 style="enable-background:new 0 0 200 130;" xml:space="preserve">
<style type="text/css">
	.st0{fill:url(#SVGID_1_);}
	.st1{fill:url(#SVGID_2_);}
	.st2{fill:#4444C6;}
	.st3{fill:url(#SVGID_3_);}
	.st4{fill:url(#SVGID_4_);}
	.st5{fill:#FFFFFF;}
	.st6{opacity:0.1;fill:#242628;enable-background:new    ;}
	.st7{fill:#2D3338;}
	.st8{fill:#01943F;}
</style>
<linearGradient id="SVGID_1_" gradientUnits="userSpaceOnUse" x1="177.5038" y1="103.9777" x2="132.4962" y2="26.0224">
	<stop  offset="0" style="stop-color:#76A4FF"/>
	<stop  offset="1" style="stop-color:#D7E7FF"/>
</linearGradient>
<circle class="st0" cx="155" cy="65" r="45"/>
<linearGradient id="SVGID_2_" gradientUnits="userSpaceOnUse" x1="175.2534" y1="100.0798" x2="134.7466" y2="29.9201">
	<stop  offset="0" style="stop-color:#9FC2FF"/>
	<stop  offset="1" style="stop-color:#D7E7FF"/>
</linearGradient>
<path class="st1" d="M195.5,65c0,6.5-1.5,12.6-4.2,18c0,0,0,0,0,0c-6.6,13.3-20.4,22.5-36.3,22.5h0c-15.9,0-29.6-9.2-36.3-22.5
	c0,0,0,0,0,0c-2.7-5.4-4.2-11.5-4.2-18c0-22.4,18.1-40.5,40.5-40.5h0C177.4,24.5,195.5,42.6,195.5,65z"/>
<path class="st2" d="M188.7,82.4l0,0.5l-0.5,0c-2.8,0-3.6,0-3.9,0c-0.2,0-0.2,0-0.3,0c-0.3,0-1.1,0-4.4,0l-0.5,0l0-0.5
	c0,0,0.1-2.3-1-4.9c-0.6-1.5-1.4-2.9-2.5-4.1c-1.3-1.5-3-2.7-5-3.5c-4-1.7-6.7-3.2-9-4.9c-2.5-1.9-4.6-4.1-6.6-6.9
	c-2,2.9-4.2,5.1-6.7,6.9c-2.3,1.7-5,3.2-9,4.9c-2,0.9-3.7,2-5,3.5c-1.1,1.2-1.9,2.6-2.5,4.1c-1,2.7-1,4.9-1,4.9l0,0.5l-0.5,0
	c-3.3,0-4.1,0-4.4,0c-0.2,0-0.2,0-0.3,0c-0.3,0-1.1,0-3.9,0l-0.5,0l0-0.5c-0.1-4.5,1.3-9.2,4-13.2c2.6-4,6.2-7,10.2-8.4
	c1.8-0.6,3.5-1.5,5-2.5c1.3-0.8,2.4-1.7,3.5-2.8c1.8-1.7,2.7-3.1,2.7-3.2c2.8-4.8,5.6-9.6,8.4-14.4c2.8,4.8,5.6,9.6,8.4,14.4
	c0,0.1,0.9,1.5,2.7,3.2c1.1,1,2.2,2,3.5,2.8c1.6,1,3.3,1.8,5,2.5c3.9,1.4,7.6,4.4,10.2,8.4C187.4,73.2,188.8,77.9,188.7,82.4z"/>
<linearGradient id="SVGID_3_" gradientUnits="userSpaceOnUse" x1="67.5038" y1="103.9777" x2="22.4962" y2="26.0224">
	<stop  offset="0" style="stop-color:#76A4FF"/>
	<stop  offset="1" style="stop-color:#D7E7FF"/>
</linearGradient>
<circle class="st3" cx="45" cy="65" r="45"/>
<linearGradient id="SVGID_4_" gradientUnits="userSpaceOnUse" x1="65.2534" y1="100.0798" x2="24.7466" y2="29.9201">
	<stop  offset="0" style="stop-color:#9FC2FF"/>
	<stop  offset="1" style="stop-color:#D7E7FF"/>
</linearGradient>
<path class="st4" d="M85.5,65c0,6.5-1.5,12.6-4.2,18c0,0,0,0,0,0c-6.6,13.3-20.4,22.5-36.3,22.5h0c-15.9,0-29.6-9.2-36.3-22.5
	c0,0,0,0,0,0C6,77.6,4.5,71.5,4.5,65c0-22.4,18.1-40.5,40.5-40.5h0C67.4,24.5,85.5,42.6,85.5,65z"/>
<path class="st2" d="M78.7,82.4l0,0.5l-0.5,0c-2.8,0-3.6,0-3.9,0c-0.2,0-0.2,0-0.3,0c-0.3,0-1.1,0-4.4,0l-0.5,0l0-0.5
	c0,0,0.1-2.3-1-4.9c-0.6-1.5-1.4-2.9-2.5-4.1c-1.3-1.5-3-2.7-5-3.5c-4-1.7-6.7-3.2-9-4.9c-2.5-1.9-4.6-4.1-6.6-6.9
	c-2,2.9-4.2,5.1-6.7,6.9c-2.3,1.7-5,3.2-9,4.9c-2,0.9-3.7,2-5,3.5c-1.1,1.2-1.9,2.6-2.5,4.1c-1,2.7-1,4.9-1,4.9l0,0.5l-0.5,0
	c-3.3,0-4.1,0-4.4,0c-0.2,0-0.2,0-0.3,0c-0.3,0-1.1,0-3.9,0l-0.5,0l0-0.5c-0.1-4.5,1.3-9.2,4-13.2c2.6-4,6.2-7,10.2-8.4
	c1.8-0.6,3.5-1.5,5-2.5c1.3-0.8,2.4-1.7,3.5-2.8c1.8-1.7,2.7-3.1,2.7-3.2c2.8-4.8,5.6-9.6,8.4-14.4c2.8,4.8,5.6,9.6,8.4,14.4
	c0,0.1,0.9,1.5,2.7,3.2c1.1,1,2.2,2,3.5,2.8c1.6,1,3.3,1.8,5,2.5c3.9,1.4,7.6,4.4,10.2,8.4C77.4,73.2,78.8,77.9,78.7,82.4z"/>
<path class="st5" d="M154,65c0,8.6-2,16.8-5.6,24l0,0c-8.9,17.8-27.1,30-48.4,30l0,0c-21.2,0-39.5-12.2-48.4-30l0,0
	C48,81.8,46,73.6,46,65c0-29.8,24.1-54,54-54l0,0C129.9,11,154,35.2,154,65z"/>
<path class="st6" d="M100,11c-29.8,0-54,24.2-54,54s24.2,54,54,54s54-24.2,54-54S129.8,11,100,11z M143.6,86.6
	c-7.9,16-24.5,27-43.6,27l0,0c-19.1,0-35.5-11-43.6-27l0,0c-3.2-6.5-5-13.8-5-21.6c0-26.9,21.7-48.6,48.6-48.6l0,0
	c26.9,0,48.6,21.7,48.6,48.6C148.6,72.8,146.8,80.1,143.6,86.6L143.6,86.6z"/>
<path class="st7" d="M107.6,50.7c0-10.7-5.2-19.8-9.1-22.9c0,0-0.2-0.1-0.2,0.2c-0.4,20.6-10.8,26.3-16.6,33.7
	c-13.3,17.4-1,36.5,11.6,40c7.1,1.9-1.7-3.5-2.8-15C89.3,72.8,107.6,62.2,107.6,50.7"/>
<path class="st8" d="M114.5,57.8c0,0-0.1,0-0.2,0l0,0c-0.2,2.5-3.1,8.2-6.6,13.2c-12.1,17.3-5.2,25.6-1.3,30.1c2.3,2.6,0,0,5.6-2.6
	c0.5-0.2,10.9-5.8,12.1-18.5C125.1,67.6,117.3,60,114.5,57.8"/>
</svg>
