<?xml version="1.0" encoding="utf-8"?>
<!-- Generator: Adobe Illustrator 23.0.5, SVG Export Plug-In . SVG Version: 6.00 Build 0)  -->
<svg version="1.1" id="Layer_1" xmlns="http://www.w3.org/2000/svg" xmlns:xlink="http://www.w3.org/1999/xlink" x="0px" y="0px"
	 viewBox="0 0 2000 2000" style="enable-background:new 0 0 2000 2000;" xml:space="preserve">
<style type="text/css">
	.st0{fill:url(#SVGID_1_);}
	.st1{fill:url(#SVGID_2_);}
	.st2{fill:#4444C6;}
</style>
<linearGradient id="SVGID_1_" gradientUnits="userSpaceOnUse" x1="1500.0835" y1="1866.17" x2="499.9165" y2="133.83">
	<stop  offset="0" style="stop-color:#76A4FF"/>
	<stop  offset="1" style="stop-color:#D7E7FF"/>
</linearGradient>
<circle class="st0" cx="1000" cy="1000" r="1000"/>
<linearGradient id="SVGID_2_" gradientUnits="userSpaceOnUse" x1="1450.0751" y1="1779.5519" x2="549.9248" y2="220.4459">
	<stop  offset="0" style="stop-color:#9FC2FF"/>
	<stop  offset="1" style="stop-color:#D7E7FF"/>
</linearGradient>
<path class="st1" d="M1900,1000c0,143.5-33.6,279.1-93.3,399.5c-0.2,0.3-0.3,0.7-0.5,1c-147.3,295.9-452.7,499.3-805.7,499.5h-1
	c-353-0.2-658.4-203.6-805.7-499.5c-0.2-0.3-0.3-0.7-0.5-1c-59.7-120.4-93.3-256-93.3-399.5c0-496.9,402.7-899.7,899.5-900h1
	C1497.3,100.3,1900,503.1,1900,1000z"/>
<path class="st2" d="M1749.9,1387.4l-0.2,10.9l-10.9,0c-61.3,0.1-79,0.1-85.7,0.1c-4.1,0-4.1,0-7.7,0c-6.7,0.1-24.6,0.2-98.7,0.7
	l-11.5,0.1l0.3-11.5c0-0.5,1.2-50.1-21.5-109.1c-13.2-34.4-31.9-65.3-55.4-91.7c-29.4-33.1-66.6-59.4-110.7-78.3
	c-88.4-37.9-148.3-70.5-200.3-109c-55.5-41.1-102.7-90.1-147.5-153.2c-45,63.6-92.3,112.8-148.1,154.1
	c-52,38.5-111.9,71.1-200.3,109c-44.1,18.9-81.3,45.3-110.7,78.3c-23.5,26.5-42.2,57.3-55.4,91.7c-22.7,59-21.5,108.6-21.5,109.1
	l0.3,11.4l-11.5-0.1c-74.1-0.4-92-0.6-98.7-0.6c-3.6,0-3.6,0-7.7,0c-6.6,0-24.3,0-85.7-0.1l-10.9,0l-0.2-10.9
	c-1.5-100.7,29.8-205.3,88-294.4c58.3-89.1,138.6-155.3,226.2-186.2c39.2-13.9,76.7-32.3,111.5-54.9c27.9-18.1,54.1-38.9,77.9-61.7
	c39.6-38,59.4-69.4,60.6-71.2c62-106.6,123.9-213.3,185.9-319.9c61.9,106.3,123.8,212.6,185.6,319c1.1,1.7,20.9,33.1,60.6,71.2
	c23.8,22.8,50,43.6,77.9,61.7c34.8,22.6,72.3,41.1,111.5,54.9c87.6,31,167.9,97.1,226.2,186.2
	C1720.2,1182.1,1751.5,1286.6,1749.9,1387.4z"/>
<path class="st2" d="M1806.7,1399.5c-0.2,0.3-0.3,0.7-0.5,1H193.8c-0.2-0.3-0.3-0.7-0.5-1H1806.7z"/>
<rect x="999.5" y="100" class="st2" width="1" height="1800"/>
</svg>
