<svg xmlns="http://www.w3.org/2000/svg" xmlns:xlink="http://www.w3.org/1999/xlink" style="enable-background:new 0 0 256 256" id="Layer_1" x="0" y="0" version="1.1" viewBox="0 0 256 256" xml:space="preserve"><style type="text/css">.st0{fill:#8768c9}.st0,.st1,.st2,.st3,.st4,.st5{fill-rule:evenodd;clip-rule:evenodd}.st1{fill:url(#SVGID_1_)}.st2{fill:#7a1341}.st3{fill:#b53e38}.st4{fill:#9a97e7}.st5{opacity:.31;fill:#8e004a}.st6{fill:#5050bc}.st7{fill:#6868ff}.st8{fill:#8080ff}.st9{fill-rule:evenodd;clip-rule:evenodd;fill:url(#SVGID_2_)}.st10{fill:none;stroke:#5050bc;stroke-linecap:round}.st11{fill:#7159bb}.st11,.st12,.st13,.st14,.st15{fill-rule:evenodd;clip-rule:evenodd}.st12{fill:#cec7ff}.st13{fill:#a42838}.st14{fill:#700641}.st15{fill:url(#SVGID_3_)}.st16{fill:#86131e}.st17,.st18{fill-rule:evenodd;clip-rule:evenodd}.st17{opacity:.51;fill:#6b0041}.st18{fill:#d05136}.st19{opacity:.2}.st20,.st21{fill-rule:evenodd;clip-rule:evenodd;fill:#a9579f}.st21{fill:#e78154}.st22{fill:#4444c6}.st23,.st24{fill-rule:evenodd;clip-rule:evenodd;fill:#fff}.st24{fill:url(#SVGID_4_)}.st25{fill:url(#SVGID_5_)}.st26{fill:url(#SVGID_6_)}</style><g><polygon points="6.2 62.9 97 72 95.4 22.4 6.2 12.3" class="st0"/><linearGradient id="SVGID_1_" x1="175.528" x2="175.528" y1="220.147" y2="37.891" gradientUnits="userSpaceOnUse"><stop style="stop-color:#c2ceff" offset="0"/><stop style="stop-color:#aea2ff" offset="1"/></linearGradient><polygon points="101.7 220.1 241.8 220.1 252.7 38 98.3 37.9" class="st1"/><g><polygon points="240.2 246.1 252.7 38 250.3 37.9 238.7 246.1" class="st2"/><polygon points="250.3 37.9 248.5 37.9 238 246.1 238.7 246.1" class="st3"/></g><g><polygon points="101.8 246.1 100.8 38 98.3 37.9 100.4 246.1" class="st2"/><polygon points="98.3 37.9 96.5 37.9 99.6 246.1 100.4 246.1" class="st3"/></g><g><polygon points="117.5 220.5 107.5 220.5 104.9 30.5 115.8 30.5" class="st4"/><polygon points="141.2 220.4 131.3 220.4 130.9 30.5 141.8 30.5" class="st4"/><polygon points="164.9 220.3 155 220.4 156.9 30.5 167.8 30.5" class="st4"/><polygon points="188.6 220.2 178.6 220.3 182.9 30.5 193.8 30.5" class="st4"/><polygon points="212.2 220.1 202.3 220.2 208.9 30.5 219.8 30.5" class="st4"/><polygon points="235.9 220.1 225.9 220.1 234.8 30.5 245.7 30.5" class="st4"/></g><polygon points="97 72 248.2 113.4 250.6 73.2 201.2 55.1 96.5 62.2" class="st5"/><g><polygon points="20 155.5 7.9 12.3 10.8 12.2 21.6 155.5" class="st3"/><polygon points="10.8 12.2 13.1 13.1 23.1 155.4 21.6 155.5" class="st2"/></g><path d="M190.8,152.3c3.6,2.5,0.8,8-3.1,13.3c-3.8,5.3-8.1,9.7-11.6,7.1c-3.6-2.5-3.1-9.8,0.6-15 C180.6,152.5,187.2,149.8,190.8,152.3z" class="st6"/><path d="M206.3,167c2.9-7.6-0.9-16.1-8.6-19l-11.8-4.5l-8,21.3l18,6.8C200,173.2,204.7,171.1,206.3,167z" class="st7"/><path d="M201.2,147.4c-2.4,1.9-1,4.8,1.1,7.3c2,2.6,4.6,4.5,7,2.5s2.6-6.1,0.5-8.6 C207.7,146.1,203.6,145.4,201.2,147.4z" class="st8"/><rect width="22.8" height="38.8" x="160.8" y="131.1" class="st7" transform="matrix(0.3533 -0.9355 0.9355 0.3533 -29.4865 258.4482)"/><path d="M173.7,152.9c1.8,4.1-3.3,7.3-9.3,10s-11.8,4.4-13.7,0.3c-1.8-4.1,2.1-10,8.1-12.7 C164.8,147.8,172,148.8,173.7,152.9z" class="st7"/><path d="M162.6,143.7c1.8,4.1-3.3,7.3-9.3,10s-11.8,4.4-13.7,0.3s2.1-10,8.1-12.7C153.7,138.8,160.7,139.8,162.6,143.7 z" class="st7"/><linearGradient id="SVGID_2_" x1="101.852" x2="101.852" y1="104.797" y2="157.048" gradientTransform="matrix(-1.2579 -0.1531 0.1939 -0.9882 276.1375 268.6215)" gradientUnits="userSpaceOnUse"><stop style="stop-color:#6161f7" offset="0"/><stop style="stop-color:#7575fc" offset="1"/></linearGradient><path d="M144.7,128c0.7-2.2,2.1-5.8,5.2-9c2.1-2.3,4.5-3.9,6.3-4.6c1.6-0.6,2.9-0.9,2.9-0.9c0.8-0.2,1.1-0.2,1.8-0.5 c0,0,1.2-0.3,2.5-1c2.9-1.4,5.7-3.9,5.7-3.9c4.2-3.8,7.5-8.8,8.5-10.4c1.5,7.7,4.3,13.4,6.5,15.7c2.4,2.6,4.1,3.7,4.1,3.7 c0.4,0.3,1.4,0.8,2.5,1.6c0,0,1.1,0.8,2,1.5c2.9,2.5,4.6,6.1,4.6,6.1c2.2,4.7,1.8,9.3,1.5,11.1l-0.1,0.5c0,0.2-0.1,0.5-0.1,0.7 c-2,12.6-15.4,13-29.4,10.9c-10.9-1.7-21.2-5-24.1-12.3c-1.2-3.1-0.7-6.9-0.7-6.9C144.5,129.3,144.6,128.5,144.7,128z" class="st9"/><g><path d="M174.4,137.7c-0.6,3.6-7.8,2.4-7.2-1.2" class="st10"/><ellipse cx="178.3" cy="130.4" class="st6" rx="4.4" ry="2.7" transform="matrix(0.1527 -0.9883 0.9883 0.1527 22.2584 286.6836)"/><ellipse cx="166" cy="128.5" class="st6" rx="4.4" ry="2.7" transform="matrix(0.1527 -0.9883 0.9883 0.1527 13.734 272.95)"/></g><g><polygon points="197.1 155.5 198.7 11.4 201.6 11.3 198.7 155.5" class="st3"/><polygon points="201.6 11.3 203.8 12.2 200.1 155.4 198.7 155.5" class="st2"/></g><polygon points="253 32.2 201.4 9.9 200.5 61.4 251 73.2" class="st11"/><polygon points="200.5 61.4 6.2 62.9 3 12.3 201.4 9.9" class="st12"/><g><polygon points="31.5 230 33.4 246.1 37.2 246.1 37.2 230" class="st13"/><polygon points="37.2 230 39.1 230 38.2 246.1 37.2 246.1" class="st14"/><polygon points="81.1 230 82.2 246.1 86 246.1 86.8 230" class="st13"/><polygon points="86.8 230 88.7 230 87 246.1 86 246.1" class="st14"/><polygon points="81.3 233.8 86.8 234.3 86.8 230 81.1 230" class="st14"/><polygon points="32 234.1 37.2 235.1 37.2 230 31.5 230" class="st14"/><polygon points="198.9 230 197.7 246.1 194 246.1 193.2 230" class="st13"/><polygon points="198.9 230 200.5 230 198.9 246.1 197.7 246.1" class="st14"/><polygon points="220 230 218.8 246.1 215 246.1 214.2 230" class="st13"/><polygon points="220 230 221.5 230 220 246.1 218.8 246.1" class="st14"/><polygon points="23.6 229.9 17.4 159.1 201.2 156.8 196.6 230.9" class="st3"/><polygon points="201.2 156.8 229.1 156.8 223.4 230.4 196.6 230.9" class="st2"/><linearGradient id="SVGID_3_" x1="107.776" x2="107.776" y1="224.18" y2="163.234" gradientUnits="userSpaceOnUse"><stop style="stop-color:#9d252c" offset="0"/><stop style="stop-color:#9c253b" offset="1"/></linearGradient><polygon points="29.6 223.7 24.6 165.4 191 163.2 187.5 224.2" class="st15"/><polygon points="29.6 223.7 24.6 165.4 26.4 165.4 30.1 223.7" class="st2"/><polygon points="9.9 159.2 9.5 155.6 204.5 153.2 204.5 158.5" class="st3"/><polygon points="204.5 153.2 235.3 155.4 234.7 159.2 204.5 158.5" class="st2"/><g><g><rect width=".5" height="58.9" x="44.6" y="164.8" class="st16" transform="matrix(0.9983 -5.773360e-02 5.773360e-02 0.9983 -11.1422 2.9129)"/></g><g><polygon points="74 223.7 69.5 165.4 70 165.3 74.4 223.7" class="st16"/></g><g><polygon points="57.3 223.8 54.4 165.1 54.9 165.1 57.7 223.8" class="st16"/></g><g><rect width=".5" height="59.6" x="102.2" y="164.2" class="st16" transform="matrix(0.9967 -8.122191e-02 8.122191e-02 0.9967 -15.4174 8.9614)"/></g><g><rect width=".5" height="59.9" x="113.1" y="164.3" class="st16"/></g><g><rect width=".5" height="59.8" x="127.6" y="163.9" class="st16" transform="matrix(0.9998 -2.023322e-02 2.023322e-02 0.9998 -3.8947 2.6266)"/></g><g><polygon points="147.5 224.2 147 224.2 150.4 163.2 150.9 163.2" class="st16"/></g><g><rect width=".5" height="60.9" x="160.5" y="163.2" class="st16"/></g><g><polygon points="175.7 224.2 175.2 224.2 178.4 163.5 178.9 163.5" class="st16"/></g><g><rect width="11.5" height=".5" x="101.8" y="186" class="st16"/></g><g><rect width="16" height=".5" x="57.5" y="214.2" class="st16"/></g><g><rect width="17.8" height=".5" x="160.6" y="170.6" class="st16" transform="matrix(0.99 -0.1409 0.1409 0.99 -22.3685 25.5838)"/></g></g><polygon points="17.4 159.1 17.9 165.6 200.6 167.5 201.2 158.5" class="st17"/><polygon points="11 226.8 11.5 230 190.2 230.9 190.2 227" class="st18"/><polygon points="190.2 227 196.8 227.7 196.6 230.9 190.2 230.9" class="st2"/><g class="st19"><polygon points="128.5 218.3 147.2 220.1 150.1 172.9 127.4 172.1" class="st20"/><polygon points="104.9 223.7 74.2 223.7 69.9 167.5 83.8 167.5 88.1 218 89.1 218.3 87.3 189.1 88.8 189.3 90.4 218.9 98 219.1 96.6 169.6 100.4 168.9" class="st20"/><polygon points="160.7 163.2 178.7 163.5 178.4 169.6 160.7 172.1" class="st20"/><polygon points="175.5 224.2 187.5 224.2 189.8 183.8 186.7 183.8 184.4 221.4 181.8 221.5 184.5 172.6 178.3 171.1" class="st20"/><polygon points="190.2 175.9 200.3 172.5 199.9 178.8 190 180.2" class="st20"/><polygon points="189.4 189.7 199.3 188.3 199.2 190.3 189.4 190.7" class="st20"/><polygon points="21.2 202.7 28.2 207.1 26.9 192.3 19.9 188.3" class="st20"/><polygon points="19.6 185.2 26.4 186.8 26.3 185.2 19.6 184.1" class="st20"/></g><polygon points="28.5 226.8 30.7 227.8 32.1 226.8" class="st21"/><polygon points="140 227 148.9 229 142.9 226.8" class="st21"/><polygon points="193.3 233.5 198.6 234.2 198.9 230.9 193.3 230.9" class="st14"/><polygon points="214.4 233.4 219.7 234.1 219.9 230.5 214.3 230.6" class="st14"/></g><path d="M21.6,62.9l-3.1-50.8c0,0,12.9-0.2,13.5-0.2c0.6,0,1.4,50.8,1.4,50.8L21.6,62.9z" class="st4"/><polygon points="57.1 62.5 57.1 11.6 71.2 11.3 72.4 62.5" class="st4"/><polygon points="93.2 62.2 98.3 11.3 113.7 11 110.9 62.1" class="st4"/><polygon points="136.1 61.9 136.1 10.7 153.3 10.5 147.8 61.8" class="st4"/><polygon points="175.5 61.6 177.7 10.5 191 10.5 187.2 61.5" class="st4"/><polygon points="228.5 164.7 243.3 163.7 240.2 220.1 224.2 220.1" class="st5"/><g><path d="M51.4,196.3L51.4,196.3c-0.8-6.9,7.1-12.9,17.2-13l78.7-0.9c10.4-0.1,18.6,6,17.7,13.1l-0.1,0.9 c-0.8,6.2-8.4,11-17.5,11H68.9C59.7,207.5,52.1,202.6,51.4,196.3z" class="st11"/><path d="M50.7,196.3L50.7,196.3c-0.8-6.9,7.1-12.9,17.2-13l78.7-0.9c10.4-0.1,18.6,6,17.7,13.1l-0.1,0.9 c-0.8,6.2-8.4,11-17.5,11H68.2C59,207.5,51.4,202.6,50.7,196.3z" class="st12"/><g><path d="M90.2,195.2c0,0.6-0.1,1.2-0.3,1.7c-0.2,0.5-0.5,0.9-0.8,1.3c-0.3,0.3-0.7,0.6-1.2,0.8c-0.5,0.2-1,0.3-1.5,0.3 s-1-0.1-1.5-0.3c-0.5-0.2-0.9-0.4-1.2-0.8c-0.3-0.3-0.6-0.8-0.8-1.3c-0.2-0.5-0.3-1.1-0.3-1.7c0-0.6,0.1-1.2,0.3-1.7 c0.2-0.5,0.5-0.9,0.8-1.2c0.3-0.3,0.7-0.6,1.2-0.8c0.5-0.2,1-0.3,1.5-0.3c0.5,0,1,0.1,1.5,0.3c0.5,0.2,0.9,0.4,1.2,0.8 c0.3,0.3,0.6,0.8,0.8,1.2C90.1,194,90.2,194.6,90.2,195.2z M88.6,195.2c0-0.9-0.2-1.5-0.6-2c-0.4-0.5-0.9-0.7-1.5-0.7 c-0.6,0-1.2,0.2-1.5,0.7c-0.4,0.4-0.6,1.1-0.6,2s0.2,1.5,0.6,2c0.4,0.4,0.9,0.7,1.5,0.7s1.2-0.2,1.5-0.7 C88.4,196.8,88.6,196.1,88.6,195.2z"/><path d="M95.4,198.5c-0.2,0.1-0.4,0.2-0.6,0.2c-0.2,0.1-0.5,0.1-0.8,0.1c-0.4,0-0.7-0.1-1.1-0.2c-0.3-0.1-0.6-0.3-0.9-0.5 c-0.2-0.2-0.4-0.5-0.6-0.9c-0.1-0.4-0.2-0.8-0.2-1.3c0-0.5,0.1-0.9,0.2-1.3c0.1-0.4,0.4-0.7,0.6-0.9c0.3-0.2,0.6-0.4,1-0.6 c0.4-0.1,0.8-0.2,1.2-0.2c0.4,0,0.8,0.1,1.2,0.2c0.4,0.1,0.6,0.2,0.9,0.4c0.1,0.1,0.3,0.2,0.4,0.3c0.1,0.1,0.1,0.3,0.1,0.5v4.8 c0,0.4-0.1,0.8-0.2,1.1c-0.2,0.3-0.4,0.6-0.6,0.8c-0.3,0.2-0.6,0.3-0.9,0.4c-0.4,0.1-0.7,0.1-1.2,0.1c-0.4,0-0.8,0-1.1-0.1 c-0.3-0.1-0.6-0.2-0.7-0.3c-0.3-0.2-0.4-0.4-0.4-0.7c0-0.2,0-0.3,0.1-0.4c0.1-0.1,0.1-0.2,0.2-0.3c0.2,0.1,0.5,0.2,0.8,0.3 c0.3,0.1,0.6,0.1,1,0.1c0.5,0,0.9-0.1,1.2-0.3c0.3-0.2,0.4-0.5,0.4-0.9V198.5z M94.3,197.6c0.2,0,0.4,0,0.6-0.1 c0.2-0.1,0.3-0.1,0.4-0.2v-2.8c-0.1-0.1-0.3-0.1-0.4-0.2c-0.2,0-0.3-0.1-0.6-0.1c-0.5,0-0.8,0.1-1.1,0.4 c-0.3,0.3-0.4,0.7-0.4,1.3c0,0.3,0,0.6,0.1,0.8c0.1,0.2,0.2,0.4,0.3,0.5c0.1,0.1,0.3,0.2,0.5,0.3 C93.9,197.6,94.1,197.6,94.3,197.6z"/><path d="M99.7,196.8c0.1,0.4,0.3,0.7,0.6,0.9c0.3,0.2,0.7,0.3,1.2,0.3c0.3,0,0.7-0.1,1-0.2c0.3-0.1,0.5-0.2,0.7-0.3 c0.1,0.1,0.2,0.2,0.3,0.3c0.1,0.1,0.1,0.2,0.1,0.4c0,0.2-0.1,0.3-0.2,0.4c-0.1,0.1-0.3,0.2-0.5,0.3c-0.2,0.1-0.4,0.2-0.7,0.2 c-0.3,0-0.6,0.1-0.9,0.1c-0.5,0-0.9-0.1-1.3-0.2c-0.4-0.1-0.7-0.3-1-0.6c-0.3-0.3-0.5-0.6-0.7-1c-0.2-0.4-0.2-0.9-0.2-1.4 c0-0.5,0.1-1,0.2-1.3c0.2-0.4,0.4-0.7,0.6-1c0.3-0.3,0.6-0.4,0.9-0.6c0.4-0.1,0.7-0.2,1.1-0.2c0.4,0,0.8,0.1,1.1,0.2 c0.3,0.1,0.6,0.3,0.9,0.5c0.2,0.2,0.4,0.5,0.6,0.8c0.1,0.3,0.2,0.7,0.2,1c0,0.2-0.1,0.4-0.2,0.5c-0.1,0.1-0.3,0.2-0.5,0.2 L99.7,196.8z M101.1,194.1c-0.4,0-0.7,0.1-1,0.4c-0.3,0.3-0.4,0.7-0.5,1.2l2.8-0.4c0-0.3-0.2-0.6-0.4-0.8 C101.8,194.3,101.5,194.1,101.1,194.1z"/><path d="M106.4,196.8c0.1,0.4,0.3,0.7,0.6,0.9c0.3,0.2,0.7,0.3,1.2,0.3c0.3,0,0.7-0.1,1-0.2c0.3-0.1,0.5-0.2,0.7-0.3 c0.1,0.1,0.2,0.2,0.3,0.3c0.1,0.1,0.1,0.2,0.1,0.4c0,0.2-0.1,0.3-0.2,0.4c-0.1,0.1-0.3,0.2-0.5,0.3c-0.2,0.1-0.4,0.2-0.7,0.2 c-0.3,0-0.6,0.1-0.9,0.1c-0.5,0-0.9-0.1-1.3-0.2c-0.4-0.1-0.7-0.3-1-0.6c-0.3-0.3-0.5-0.6-0.7-1c-0.2-0.4-0.2-0.9-0.2-1.4 c0-0.5,0.1-1,0.2-1.3c0.2-0.4,0.4-0.7,0.6-1c0.3-0.3,0.6-0.4,0.9-0.6c0.4-0.1,0.7-0.2,1.1-0.2c0.4,0,0.8,0.1,1.1,0.2 c0.3,0.1,0.6,0.3,0.9,0.5c0.2,0.2,0.4,0.5,0.6,0.8c0.1,0.3,0.2,0.7,0.2,1c0,0.2-0.1,0.4-0.2,0.5c-0.1,0.1-0.3,0.2-0.5,0.2 L106.4,196.8z M107.7,194.1c-0.4,0-0.7,0.1-1,0.4c-0.3,0.3-0.4,0.7-0.5,1.2l2.8-0.4c0-0.3-0.2-0.6-0.4-0.8 C108.4,194.3,108.1,194.1,107.7,194.1z"/><path d="M119.4,191.5c0,0.1,0.1,0.2,0.1,0.3c0,0.1,0.1,0.2,0.1,0.4c0,0.2-0.1,0.4-0.2,0.5c-0.1,0.1-0.2,0.2-0.4,0.2h-3v2h3 c0,0.1,0.1,0.2,0.1,0.3c0,0.1,0.1,0.2,0.1,0.4c0,0.2-0.1,0.4-0.2,0.5c-0.1,0.1-0.2,0.2-0.4,0.2H116v2.9c-0.1,0-0.2,0-0.3,0.1 c-0.1,0-0.3,0-0.4,0c-0.3,0-0.5-0.1-0.7-0.2c-0.1-0.1-0.2-0.3-0.2-0.6v-6c0-0.3,0.1-0.5,0.2-0.6c0.2-0.2,0.4-0.2,0.6-0.2H119.4z"/><path d="M120.6,191.4c0-0.2,0.1-0.4,0.3-0.6c0.2-0.2,0.4-0.3,0.7-0.3c0.3,0,0.5,0.1,0.6,0.3c0.2,0.2,0.2,0.4,0.2,0.6 c0,0.2-0.1,0.5-0.2,0.6c-0.2,0.2-0.4,0.3-0.6,0.3c-0.3,0-0.5-0.1-0.7-0.3C120.6,191.8,120.6,191.6,120.6,191.4z M120.7,193.2 c0.1,0,0.2,0,0.3-0.1c0.1,0,0.3,0,0.4,0c0.3,0,0.5,0.1,0.7,0.2c0.1,0.1,0.2,0.3,0.2,0.6v5.2c-0.1,0-0.2,0-0.3,0.1 c-0.1,0-0.3,0-0.4,0c-0.3,0-0.5-0.1-0.7-0.2c-0.1-0.1-0.2-0.3-0.2-0.6V193.2z"/><path d="M127.5,194.5c-0.2-0.2-0.5-0.2-0.8-0.2c-0.2,0-0.5,0-0.7,0.1c-0.2,0.1-0.4,0.1-0.5,0.2v4.5c-0.1,0-0.2,0-0.3,0.1 c-0.1,0-0.3,0-0.4,0c-0.3,0-0.5-0.1-0.6-0.2c-0.1-0.1-0.2-0.3-0.2-0.6v-4c0-0.2,0-0.4,0.1-0.5c0.1-0.1,0.2-0.2,0.4-0.4 c0.2-0.2,0.6-0.3,1-0.4c0.4-0.1,0.8-0.2,1.3-0.2c0.9,0,1.5,0.2,2,0.6c0.5,0.4,0.7,0.9,0.7,1.7v3.8c-0.1,0-0.2,0-0.3,0.1 c-0.1,0-0.3,0-0.4,0c-0.3,0-0.5-0.1-0.7-0.2c-0.1-0.1-0.2-0.3-0.2-0.6v-3.1C127.8,194.9,127.7,194.6,127.5,194.5z"/><path d="M133.2,193c0.8,0,1.5,0.2,1.9,0.5c0.5,0.3,0.7,0.9,0.7,1.6v2.9c0,0.2,0,0.4-0.1,0.5c-0.1,0.1-0.2,0.2-0.4,0.3 c-0.2,0.1-0.5,0.3-0.9,0.3c-0.4,0.1-0.8,0.1-1.2,0.1c-0.8,0-1.5-0.2-2-0.5c-0.5-0.3-0.7-0.8-0.7-1.4c0-0.6,0.2-1,0.5-1.3 c0.4-0.3,0.9-0.5,1.5-0.5l1.7-0.2v-0.2c0-0.3-0.1-0.5-0.3-0.7c-0.2-0.1-0.5-0.2-1-0.2c-0.3,0-0.6,0-0.9,0.1 c-0.3,0.1-0.6,0.2-0.8,0.3c-0.1-0.1-0.2-0.2-0.2-0.3c-0.1-0.1-0.1-0.2-0.1-0.4c0-0.2,0-0.3,0.1-0.4c0.1-0.1,0.2-0.2,0.4-0.3 c0.2-0.1,0.5-0.2,0.8-0.2C132.6,193,132.9,193,133.2,193z M133.3,198c0.2,0,0.5,0,0.7-0.1c0.2,0,0.3-0.1,0.4-0.2v-1.4l-1.2,0.1 c-0.3,0-0.6,0.1-0.8,0.2c-0.2,0.1-0.3,0.3-0.3,0.5c0,0.2,0.1,0.4,0.3,0.6C132.6,198,132.9,198,133.3,198z"/><path d="M141,194.5c-0.2-0.2-0.5-0.2-0.8-0.2c-0.2,0-0.5,0-0.7,0.1c-0.2,0.1-0.4,0.1-0.5,0.2v4.5c-0.1,0-0.2,0-0.3,0.1 c-0.1,0-0.3,0-0.4,0c-0.3,0-0.5-0.1-0.6-0.2c-0.1-0.1-0.2-0.3-0.2-0.6v-4c0-0.2,0-0.4,0.1-0.5c0.1-0.1,0.2-0.2,0.4-0.4 c0.2-0.2,0.6-0.3,1-0.4c0.4-0.1,0.8-0.2,1.3-0.2c0.9,0,1.5,0.2,2,0.6c0.5,0.4,0.7,0.9,0.7,1.7v3.8c-0.1,0-0.2,0-0.3,0.1 c-0.1,0-0.3,0-0.4,0c-0.3,0-0.5-0.1-0.7-0.2c-0.1-0.1-0.2-0.3-0.2-0.6v-3.1C141.3,194.9,141.2,194.6,141,194.5z"/><path d="M147.5,194.2c-0.2,0-0.5,0-0.7,0.1c-0.2,0.1-0.4,0.2-0.5,0.4c-0.2,0.2-0.3,0.4-0.4,0.6c-0.1,0.2-0.1,0.5-0.1,0.8 c0,0.6,0.2,1.1,0.5,1.4c0.3,0.3,0.7,0.5,1.3,0.5c0.3,0,0.5,0,0.8-0.1c0.2-0.1,0.4-0.2,0.6-0.3c0.1,0.1,0.2,0.2,0.3,0.3 c0.1,0.1,0.1,0.2,0.1,0.4c0,0.3-0.2,0.5-0.5,0.7c-0.3,0.2-0.8,0.3-1.3,0.3c-0.5,0-0.9-0.1-1.3-0.2c-0.4-0.1-0.7-0.3-1-0.6 c-0.3-0.3-0.5-0.6-0.7-1c-0.2-0.4-0.2-0.8-0.2-1.4c0-0.5,0.1-1,0.2-1.4c0.2-0.4,0.4-0.7,0.7-1c0.3-0.3,0.6-0.5,1-0.6 c0.4-0.1,0.8-0.2,1.2-0.2c0.6,0,1,0.1,1.3,0.3c0.3,0.2,0.5,0.4,0.5,0.7c0,0.1,0,0.3-0.1,0.4c-0.1,0.1-0.2,0.2-0.2,0.3 c-0.2-0.1-0.4-0.2-0.6-0.3C148.1,194.3,147.8,194.2,147.5,194.2z"/><path d="M151.6,196.8c0.1,0.4,0.3,0.7,0.6,0.9c0.3,0.2,0.7,0.3,1.2,0.3c0.3,0,0.7-0.1,1-0.2c0.3-0.1,0.5-0.2,0.7-0.3 c0.1,0.1,0.2,0.2,0.3,0.3c0.1,0.1,0.1,0.2,0.1,0.4c0,0.2-0.1,0.3-0.2,0.4c-0.1,0.1-0.3,0.2-0.5,0.3c-0.2,0.1-0.4,0.2-0.7,0.2 c-0.3,0-0.6,0.1-0.9,0.1c-0.5,0-0.9-0.1-1.3-0.2c-0.4-0.1-0.7-0.3-1-0.6c-0.3-0.3-0.5-0.6-0.7-1c-0.2-0.4-0.2-0.9-0.2-1.4 c0-0.5,0.1-1,0.2-1.3c0.2-0.4,0.4-0.7,0.6-1c0.3-0.3,0.6-0.4,0.9-0.6c0.4-0.1,0.7-0.2,1.1-0.2c0.4,0,0.8,0.1,1.1,0.2 c0.3,0.1,0.6,0.3,0.9,0.5c0.2,0.2,0.4,0.5,0.6,0.8c0.1,0.3,0.2,0.7,0.2,1c0,0.2-0.1,0.4-0.2,0.5c-0.1,0.1-0.3,0.2-0.5,0.2 L151.6,196.8z M153,194.1c-0.4,0-0.7,0.1-1,0.4c-0.3,0.3-0.4,0.7-0.5,1.2l2.8-0.4c0-0.3-0.2-0.6-0.4-0.8 C153.7,194.3,153.4,194.1,153,194.1z"/></g><g><path d="M68.6,200.2c0,0.9-0.5,1.6-1,1.6s-1-0.7-1-1.6s0.5-1.6,1-1.6S68.6,199.4,68.6,200.2z" class="st22"/><path d="M73.1,200.2c0,0.9-0.5,1.6-1,1.6s-1-0.7-1-1.6s0.5-1.6,1-1.6S73.1,199.4,73.1,200.2z" class="st22"/><path d="M79.9,201.6l0,0.1l-0.1,0c-0.8,0-1.1,0-1.2,0c-0.1,0-0.1,0-0.1,0c-0.1,0-0.3,0-1.3,0l-0.2,0l0-0.2 c0,0,0-0.7-0.3-1.5c-0.2-0.5-0.4-0.9-0.7-1.2c-0.4-0.4-0.9-0.8-1.5-1.1c-1.2-0.5-2-0.9-2.7-1.5c-0.7-0.6-1.4-1.2-2-2.1 c-0.6,0.9-1.2,1.5-2,2.1c-0.7,0.5-1.5,1-2.7,1.5c-0.6,0.3-1.1,0.6-1.5,1.1c-0.3,0.4-0.6,0.8-0.7,1.2c-0.3,0.8-0.3,1.5-0.3,1.5 l0,0.2l-0.2,0c-1,0-1.2,0-1.3,0c0,0,0,0-0.1,0c-0.1,0-0.3,0-1.2,0l-0.1,0l0-0.1c0-1.4,0.4-2.8,1.2-4c0.8-1.2,1.9-2.1,3-2.5 c0.5-0.2,1-0.4,1.5-0.7c0.4-0.2,0.7-0.5,1-0.8c0.5-0.5,0.8-0.9,0.8-1c0.8-1.4,1.7-2.9,2.5-4.3c0.8,1.4,1.7,2.9,2.5,4.3 c0,0,0.3,0.4,0.8,1c0.3,0.3,0.7,0.6,1,0.8c0.5,0.3,1,0.6,1.5,0.7c1.2,0.4,2.3,1.3,3,2.5C79.5,198.9,79.9,200.3,79.9,201.6z" class="st22"/></g></g><polygon points="3 12.3 102.2 14 201.4 9.9" class="st23"/></g><path d="M47.3,134.1c-3.5,0.9-2.9,5.9-1.5,11.1c1.4,5.2,3.4,9.8,6.9,8.8c3.5-0.9,5.2-6.6,3.9-11.7	C55.1,137.2,50.8,133.2,47.3,134.1z" class="st6"/><path d="M31.2,140.9c0-6.7,5.4-12.1,12.1-12.1h10.4v18.7H37.9C34.2,147.5,31.2,144.5,31.2,140.9z" class="st7"/><path d="M40.8,127.3c1.3,2.2-0.6,4-3,5.3c-2.3,1.4-4.8,2.1-6.1-0.1s-0.2-5.4,2.1-6.8C36.2,124.4,39.5,125.1,40.8,127.3z" class="st8"/><path d="M32.4,139.4c-2.6,2.6,0.4,6.6,4.2,10.4c3.8,3.8,7.8,6.8,10.4,4.2c2.6-2.6,1.3-8.3-2.5-12.1S35,136.8,32.4,139.4	z" class="st7"/><rect width="31.9" height="18.7" x="46.2" y="128.8" class="st7"/><path d="M60.3,139.5c-2.6,2.6,0.4,6.6,4.2,10.4c3.8,3.8,7.8,6.8,10.4,4.2c2.6-2.6,1.3-8.3-2.5-12.1	C68.6,138.2,62.8,136.9,60.3,139.5z" class="st7"/><path d="M71.5,135.7c-2.6,2.6,0.4,6.6,4.2,10.4c3.8,3.8,7.8,6.8,10.4,4.2c2.6-2.6,1.3-8.3-2.5-12.1	C79.8,134.5,74.1,133.2,71.5,135.7z" class="st7"/><linearGradient id="SVGID_4_" x1="68.789" x2="68.789" y1="118.906" y2="162.006" gradientTransform="matrix(1 0 0 -1 0 258)" gradientUnits="userSpaceOnUse"><stop style="stop-color:#6161f7" offset="0"/><stop style="stop-color:#7575fc" offset="1"/></linearGradient><path d="M91.2,124.7c-0.3-1.9-1-5-3.1-8c-1.4-2.1-3.2-3.7-4.5-4.5c-1.2-0.7-2.2-1.1-2.2-1.1c-0.6-0.3-0.9-0.3-1.4-0.6	c0,0-0.9-0.4-1.9-1.1c-2.2-1.5-4.1-3.9-4.1-3.9c-2.9-3.6-5-8.1-5.6-9.5c-2.2,6.1-5.2,10.3-7.2,11.9c-2.3,1.8-3.8,2.5-3.8,2.5	c-0.4,0.2-1.2,0.5-2.2,1c0,0-1,0.5-1.8,1c-2.7,1.7-4.5,4.4-4.5,4.4c-2.4,3.5-2.6,7.3-2.6,8.8v0.4c0,0.2,0,0.4,0,0.6	c0,10.5,10.9,12.5,22.5,12.5c9.1,0,17.8-1.4,21.1-7c1.4-2.4,1.4-5.5,1.4-5.5C91.2,125.8,91.2,125.1,91.2,124.7z" class="st24"/><g><path d="M68.7,126.9c0.2,1.5-0.4,4.3-3.2,4.3" class="st10"/><path d="M68.7,126.9c-0.2,1.5,0.4,4.3,3.2,4.3" class="st10"/><ellipse cx="63.6" cy="122.4" class="st6" rx="2.2" ry="3.6"/><ellipse cx="73.8" cy="122.4" class="st6" rx="2.2" ry="3.6"/></g><linearGradient id="SVGID_5_" x1="126.381" x2="102.377" y1="151.149" y2="109.573" gradientUnits="userSpaceOnUse"><stop style="stop-color:#76a4ff" offset="0"/><stop style="stop-color:#d7e7ff" offset="1"/></linearGradient><circle cx="114.4" cy="130.4" r="24" class="st25"/><linearGradient id="SVGID_6_" x1="125.181" x2="103.577" y1="149.071" y2="111.652" gradientUnits="userSpaceOnUse"><stop style="stop-color:#9fc2ff" offset="0"/><stop style="stop-color:#d7e7ff" offset="1"/></linearGradient><path d="M136,130.4c0,3.4-0.8,6.7-2.2,9.6c0,0,0,0,0,0c-3.5,7.1-10.9,12-19.3,12h0c-8.5,0-15.8-4.9-19.3-12	c0,0,0,0,0,0c-1.4-2.9-2.2-6.1-2.2-9.6c0-11.9,9.7-21.6,21.6-21.6h0C126.3,108.8,136,118.4,136,130.4z" class="st26"/><path d="M132.4,139.7l0,0.3l-0.3,0c-1.5,0-1.9,0-2.1,0c-0.1,0-0.1,0-0.2,0c-0.2,0-0.6,0-2.4,0l-0.3,0l0-0.3	c0,0,0-1.2-0.5-2.6c-0.3-0.8-0.8-1.6-1.3-2.2c-0.7-0.8-1.6-1.4-2.7-1.9c-2.1-0.9-3.6-1.7-4.8-2.6c-1.3-1-2.5-2.2-3.5-3.7	c-1.1,1.5-2.2,2.7-3.6,3.7c-1.2,0.9-2.7,1.7-4.8,2.6c-1.1,0.5-2,1.1-2.7,1.9c-0.6,0.6-1,1.4-1.3,2.2c-0.5,1.4-0.5,2.6-0.5,2.6l0,0.3	l-0.3,0c-1.8,0-2.2,0-2.4,0c-0.1,0-0.1,0-0.2,0c-0.2,0-0.6,0-2.1,0l-0.3,0l0-0.3c0-2.4,0.7-4.9,2.1-7.1c1.4-2.1,3.3-3.7,5.4-4.5	c0.9-0.3,1.8-0.8,2.7-1.3c0.7-0.4,1.3-0.9,1.9-1.5c1-0.9,1.4-1.7,1.5-1.7c1.5-2.6,3-5.1,4.5-7.7c1.5,2.6,3,5.1,4.5,7.7	c0,0,0.5,0.8,1.5,1.7c0.6,0.5,1.2,1,1.9,1.5c0.8,0.5,1.7,1,2.7,1.3c2.1,0.7,4,2.3,5.4,4.5C131.7,134.7,132.4,137.2,132.4,139.7z" class="st22"/></svg>