<?xml version="1.0" encoding="utf-8"?>
<!-- Generator: Adobe Illustrator 23.0.5, SVG Export Plug-In . SVG Version: 6.00 Build 0)  -->
<svg version="1.1" id="Layer_1" xmlns="http://www.w3.org/2000/svg" xmlns:xlink="http://www.w3.org/1999/xlink" x="0px" y="0px"
	 viewBox="0 0 512 512" style="enable-background:new 0 0 512 512;" xml:space="preserve">
<style type="text/css">
	.st0{fill:none;}
	.st1{fill:#6161FF;}
</style>
<rect class="st0" width="512" height="512"/>
<g>
	<g id="_x31_86_50_">
		<g>
			<path class="st1" d="M182,226c0,0-0.5-5.6-0.8-8.4c1.3-0.8,2.6-1.6,3.8-2.5c2.1,1.2,6.3,3.6,6.3,3.6l7.1-1.9l8.1-14l-1.9-7.1
				c0,0-5.4-3.1-8.1-4.7c-0.1-1.6-0.2-3.1-0.6-4.6c2.1-1.8,6.4-5.5,6.4-5.5v-7.4l-10.5-12.3h-7.4c0,0-3.5,3-5.3,4.5
				c-1.9-0.9-3.9-1.7-6-2.2c-0.2-2.1-0.5-6.2-0.5-6.2l-5.2-5.2l-16.1,1.3l-5.2,5.2c0,0,0.4,5.5,0.7,8.2c-1.6,0.9-3.1,1.9-4.5,3
				c-2.3-1-6.8-3.1-6.8-3.1l-7.1,1.9l-6.8,14.7l-0.2,1l2.1,6.1c0,0,5.3,2.4,7.9,3.6c0.1,1.7,0.4,3.4,0.8,5.1c-2,1.7-6,5.1-6,5.1v7.4
				l10.5,12.4c0,0,6.1,0.7,6.4,0.5c0.3-0.2,1-0.5,1-0.5s3.8-3.2,5.7-4.9c1.6,0.7,3.3,1.3,5,1.8c0.2,2.2,0.6,6.5,0.6,6.5l5.2,5.2
				l16.1-1.5L182,226z M163.1,208.6c-9,0-16.3-7.3-16.3-16.3c0-9,7.3-16.3,16.3-16.3c9,0,16.3,7.3,16.3,16.3
				C179.4,201.3,172.2,208.6,163.1,208.6z"/>
			<path class="st1" d="M226.8,279c0,0-0.4-4.2-0.6-6.4c1-0.6,2-1.2,2.9-1.9c1.6,0.9,4.8,2.7,4.8,2.7l5.4-1.4l6.1-10.6l-1.4-5.4
				c0,0-4.1-2.4-6.1-3.5c0-1.2-0.2-2.3-0.4-3.5c1.6-1.4,4.9-4.2,4.9-4.2v-5.6l-8-9.3h-5.6c0,0-2.7,2.3-4,3.4c-1.4-0.7-3-1.3-4.5-1.7
				c-0.1-1.6-0.4-4.7-0.4-4.7l-3.9-3.9l-12.2,1l-3.9,3.9c0,0,0.3,4.1,0.5,6.2c-1.2,0.7-2.3,1.5-3.4,2.3c-1.7-0.8-5.1-2.4-5.1-2.4
				l-5.4,1.4l-5.1,11.1l-0.2,0.8l1.6,4.6c0,0,4,1.8,6,2.7c0.1,1.3,0.3,2.6,0.6,3.8c-1.5,1.3-4.6,3.9-4.6,3.9v5.6l7.9,9.3
				c0,0,4.6,0.5,4.9,0.4c0.2-0.1,0.7-0.4,0.7-0.4s2.9-2.5,4.3-3.7c1.2,0.5,2.5,1,3.8,1.4c0.2,1.6,0.5,4.9,0.5,4.9l3.9,3.9l12.2-1.1
				L226.8,279z M212.5,265.9c-6.8,0-12.3-5.5-12.3-12.3c0-6.8,5.5-12.3,12.3-12.3c6.8,0,12.3,5.5,12.3,12.3S219.3,265.9,212.5,265.9
				z"/>
			<path class="st1" d="M339.1,125.4c-51.7,0-103.4,0-155.1,0c-13,0-13,20.1,0,20.1c51.7,0,103.4,0,155.1,0
				C352.1,145.5,352.1,125.4,339.1,125.4z"/>
			<path class="st1" d="M339.1,173c-51.7,0-22.9,0-74.6,0c-13,0-13,20.1,0,20.1c51.7,0,22.9,0,74.6,0
				C352.1,193.2,352.1,173,339.1,173z"/>
			<polygon class="st1" points="134,100.2 368.1,100.2 368.1,228 392.3,228 392.3,76 109.8,76 109.8,154.8 134,154.8 			"/>
			<path class="st1" d="M349.7,364.4c0-2.6-0.2-5.1-0.7-7.6c3.6-2.9,10.9-8.7,10.9-8.7l0.4-12.2l-16.7-20.8l-12.2-0.4
				c0,0-5.9,4.8-8.9,7.1c-3.1-1.6-6.4-3-9.8-4c-0.2-3.4-0.5-10.3-0.5-10.3l-8.3-8.9l-26.7,1.3l-8.9,8.3c0,0,0.4,9.1,0.6,13.6
				c-2.6,1.4-5.2,3-7.5,4.8c-3.7-1.8-11.1-5.5-11.1-5.5l-11.9,2.7l-11.9,23.9l-0.4,1.6l3.2,10.2c0,0,8.6,4.2,12.9,6.4
				c0.1,2.9,0.5,5.7,1.1,8.4c-3.4,2.7-10.2,8.1-10.2,8.1l-0.4,12.2l16.6,20.9c0,0,10,1.5,10.5,1.2c0.5-0.3,1.6-0.8,1.6-0.8
				s6.5-5.1,9.7-7.7c2.6,1.3,5.4,2.4,8.2,3.2c0.2,3.6,0.6,10.8,0.6,10.8l8.3,8.9l26.6-1.6l8.9-8.3c0,0-0.5-9.3-0.8-13.9
				c2.2-1.2,4.3-2.5,6.4-3.9c3.4,2.1,10.2,6.3,10.2,6.3l11.9-2.7l14.1-22.7l-2.7-11.9C362.8,372.6,354.1,367.1,349.7,364.4z
				 M293.6,391.7c-14.8-0.5-26.5-12.9-26-27.7c0.5-14.9,12.9-26.5,27.7-26c14.8,0.5,26.5,12.9,26,27.7
				C320.8,380.6,308.4,392.2,293.6,391.7z"/>
			<path class="st1" d="M399.2,307.6c0,0-9.4-5.8-14.1-8.8c0-2.8-0.2-5.5-0.7-8.2c3.9-3.1,11.7-9.4,11.7-9.4l0.4-13.1l-18-22.4
				l-13.1-0.4c0,0-6.4,5.1-9.6,7.7c-3.3-1.7-6.8-3.2-10.5-4.3c-0.2-3.7-0.5-11.1-0.5-11.1l-9-9.6l-28.7,1.4l-9.6,9
				c0,0,0.5,9.7,0.7,14.6c-2.9,1.5-5.6,3.2-8.1,5.2c-4-2-11.9-5.9-11.9-5.9l-12.8,2.9l-12.8,25.7l-0.5,1.8l3.4,11c0,0,6,3,10.8,5.3
				l5.3-5l2.2-2l3-0.1l21.4-1c3.7-12.1,15.1-20.8,28.4-20.4c16,0.5,28.5,13.9,28,29.8c-0.1,4.3-1.3,8.3-3.1,11.9l15,18.7l1.9,2.3
				l-0.1,3l-0.2,7.7c3.1,1.9,6.1,3.8,6.1,3.8l12.8-2.9l15.2-24.4L399.2,307.6z"/>
			<path class="st1" d="M123.8,279c2.4,0,4.3-0.6,5.9-1.9c1.6-1.3,2.7-3.1,3.5-5.4c0.8-2.3,1.2-5.4,1.2-9.2c0-3.2-0.2-5.8-0.7-7.6
				c-0.5-1.9-1.2-3.5-2-4.8c-0.9-1.3-1.9-2.3-3.3-3c-1.3-0.7-2.8-1-4.6-1c-2.4,0-4.3,0.6-5.9,1.9c-1.6,1.3-2.7,3.1-3.5,5.4
				c-0.8,2.4-1.2,5.4-1.2,9.3c0,6.1,1.1,10.5,3.2,13.2C118.2,277.8,120.6,279,123.8,279z M119.3,251.5c1.1-1.5,2.6-2.3,4.4-2.3
				c1.9,0,3.4,0.9,4.7,2.6c1.2,1.8,1.9,5.3,1.9,10.6c0,5.3-0.6,8.8-1.9,10.6c-1.2,1.8-2.8,2.7-4.6,2.7c-1.8,0-3.4-0.9-4.6-2.6
				c-1.2-1.8-1.9-5.3-1.9-10.6C117.3,257.1,118,253.5,119.3,251.5z"/>
			<path class="st1" d="M147.3,250.2c-1.7,1.5-3.6,2.8-5.8,3.8v3.8c1.2-0.5,2.6-1.1,4.2-2s2.8-1.8,3.8-2.7v25.4h4v-32.6h-2.6
				C150.1,247.3,148.9,248.7,147.3,250.2z"/>
			<path class="st1" d="M132.3,298.3c-0.9-1.3-1.9-2.3-3.3-3c-1.3-0.7-2.8-1-4.6-1c-2.4,0-4.3,0.6-5.9,1.9c-1.6,1.3-2.7,3.1-3.5,5.4
				c-0.8,2.3-1.2,5.4-1.2,9.2c0,6.1,1.1,10.5,3.2,13.2c1.8,2.2,4.2,3.4,7.4,3.4c2.4,0,4.3-0.6,5.9-1.9c1.5-1.3,2.7-3.1,3.5-5.4
				c0.8-2.3,1.2-5.4,1.2-9.2c0-3.2-0.2-5.8-0.7-7.7C133.9,301.2,133.2,299.6,132.3,298.3z M129.1,321.4c-1.2,1.8-2.8,2.7-4.6,2.7
				s-3.4-0.9-4.6-2.7c-1.2-1.8-1.9-5.3-1.9-10.6c0-5.3,0.7-9,2-10.9c1.1-1.5,2.6-2.3,4.4-2.3c1.9,0,3.4,0.9,4.7,2.6
				c1.2,1.8,1.9,5.3,1.9,10.6C131,316.1,130.4,319.6,129.1,321.4z"/>
			<path class="st1" d="M154.1,326.8v-32.6h-2.6c-0.7,1.4-1.9,2.8-3.5,4.3c-1.7,1.5-3.6,2.8-5.8,3.8v3.8c1.2-0.5,2.6-1.1,4.2-2
				c1.6-0.9,2.8-1.8,3.8-2.7v25.4L154.1,326.8L154.1,326.8z"/>
			<path class="st1" d="M175.9,326.8v-32.6h-2.6c-0.7,1.4-1.9,2.8-3.5,4.3s-3.6,2.8-5.8,3.8v3.8c1.2-0.5,2.6-1.1,4.2-2
				c1.6-0.9,2.8-1.8,3.8-2.7v25.4L175.9,326.8L175.9,326.8z"/>
			<path class="st1" d="M204.5,298.3c-0.9-1.3-1.9-2.3-3.3-3c-1.3-0.7-2.8-1-4.6-1c-2.4,0-4.3,0.6-5.9,1.9c-1.6,1.3-2.7,3.1-3.5,5.4
				c-0.8,2.3-1.2,5.4-1.2,9.3c0,6.1,1.1,10.5,3.2,13.2c1.8,2.2,4.2,3.4,7.4,3.4c2.4,0,4.3-0.6,5.9-1.9c1.6-1.3,2.7-3.1,3.5-5.4
				c0.8-2.3,1.2-5.4,1.2-9.2c0-3.2-0.2-5.8-0.7-7.6C206.1,301.2,205.4,299.6,204.5,298.3z M201.3,321.4c-1.2,1.8-2.8,2.7-4.6,2.7
				c-1.8,0-3.4-0.9-4.6-2.7c-1.2-1.8-1.9-5.3-1.9-10.6c0-5.3,0.7-9,2-10.9c1.1-1.5,2.6-2.3,4.4-2.3c1.9,0,3.4,0.9,4.7,2.6
				c1.2,1.8,1.9,5.3,1.9,10.6C203.2,316.1,202.6,319.6,201.3,321.4z"/>
			<path class="st1" d="M132.3,352.6c-0.9-1.3-1.9-2.3-3.3-3c-1.3-0.7-2.8-1-4.6-1c-2.4,0-4.3,0.6-5.9,1.9c-1.6,1.3-2.7,3.1-3.5,5.4
				c-0.8,2.3-1.2,5.4-1.2,9.3c0,6.1,1.1,10.5,3.2,13.2c1.8,2.2,4.2,3.4,7.4,3.4c2.4,0,4.3-0.6,5.9-1.9c1.5-1.3,2.7-3.1,3.5-5.4
				c0.8-2.3,1.2-5.4,1.2-9.2c0-3.2-0.2-5.8-0.7-7.7C133.9,355.6,133.2,354,132.3,352.6z M129.1,375.7c-1.2,1.8-2.8,2.6-4.6,2.6
				s-3.4-0.9-4.6-2.6c-1.2-1.8-1.9-5.3-1.9-10.6c0-5.3,0.7-9,2-10.9c1.1-1.5,2.6-2.3,4.4-2.3c1.9,0,3.4,0.9,4.7,2.6
				c1.2,1.8,1.9,5.3,1.9,10.6C131,370.4,130.4,374,129.1,375.7z"/>
			<path class="st1" d="M157.5,352.6c-0.9-1.3-1.9-2.3-3.3-3c-1.3-0.7-2.8-1-4.6-1c-2.4,0-4.3,0.6-5.9,1.9c-1.6,1.3-2.7,3.1-3.5,5.4
				c-0.8,2.3-1.2,5.4-1.2,9.2c0,6.1,1.1,10.5,3.2,13.2c1.8,2.2,4.2,3.4,7.4,3.4c2.4,0,4.3-0.6,5.9-1.9c1.6-1.3,2.7-3.1,3.5-5.4
				c0.8-2.3,1.2-5.4,1.2-9.2c0-3.2-0.2-5.8-0.7-7.7C159.1,355.6,158.4,354,157.5,352.6z M154.3,375.7c-1.2,1.8-2.8,2.6-4.6,2.6
				s-3.4-0.9-4.6-2.6c-1.2-1.8-1.9-5.3-1.9-10.6c0-5.3,0.7-9,2.1-10.9c1.1-1.5,2.6-2.3,4.4-2.3c1.9,0,3.4,0.9,4.7,2.6
				c1.2,1.8,1.9,5.3,1.9,10.6C156.2,370.4,155.6,374,154.3,375.7z"/>
			<path class="st1" d="M182.7,352.6c-0.9-1.3-1.9-2.3-3.2-3c-1.3-0.7-2.9-1-4.6-1c-2.4,0-4.3,0.6-5.9,1.9c-1.6,1.3-2.7,3.1-3.5,5.4
				c-0.8,2.3-1.2,5.4-1.2,9.2c0,6.1,1.1,10.5,3.2,13.2c1.8,2.2,4.2,3.4,7.4,3.4c2.4,0,4.3-0.6,5.9-1.9c1.6-1.3,2.7-3.1,3.5-5.4
				c0.8-2.3,1.2-5.4,1.2-9.2c0-3.2-0.2-5.8-0.7-7.7C184.2,355.6,183.6,354,182.7,352.6z M179.5,375.7c-1.2,1.8-2.8,2.6-4.6,2.6
				c-1.8,0-3.4-0.9-4.6-2.6c-1.2-1.8-1.9-5.3-1.9-10.6c0-5.3,0.7-9,2-10.9c1.1-1.5,2.6-2.3,4.4-2.3c1.9,0,3.4,0.9,4.7,2.6
				c1.2,1.8,1.9,5.3,1.9,10.6C181.4,370.4,180.7,374,179.5,375.7z"/>
			<path class="st1" d="M204.5,381.1v-32.5h-2.6c-0.7,1.4-1.9,2.8-3.5,4.3c-1.7,1.5-3.6,2.8-5.8,3.8v3.9c1.2-0.5,2.6-1.2,4.2-2.1
				c1.6-0.9,2.8-1.8,3.8-2.7v25.4L204.5,381.1L204.5,381.1z"/>
			<path class="st1" d="M226,405.7c-1.7,1.5-3.6,2.8-5.8,3.8v3.8c1.2-0.5,2.6-1.1,4.2-2c1.6-0.9,2.8-1.8,3.8-2.7v25.4h4v-32.6h-2.6
				C228.8,402.7,227.7,404.2,226,405.7z"/>
			<path class="st1" d="M132.3,407c-0.9-1.3-1.9-2.3-3.3-3c-1.3-0.7-2.8-1.1-4.6-1.1c-2.4,0-4.3,0.6-5.9,1.9
				c-1.6,1.3-2.7,3.1-3.5,5.4c-0.8,2.3-1.2,5.4-1.2,9.3c0,6.1,1.1,10.5,3.2,13.2c1.8,2.2,4.2,3.4,7.4,3.4c2.4,0,4.3-0.6,5.9-1.9
				c1.5-1.3,2.7-3.1,3.5-5.4c0.8-2.3,1.2-5.4,1.2-9.2c0-3.2-0.2-5.8-0.7-7.7C133.9,409.9,133.2,408.3,132.3,407z M129.1,430.1
				c-1.2,1.8-2.8,2.7-4.6,2.7s-3.4-0.9-4.6-2.7c-1.2-1.8-1.9-5.3-1.9-10.6c0-5.3,0.7-9,2-11c1.1-1.5,2.6-2.3,4.4-2.3
				c1.9,0,3.4,0.9,4.7,2.6c1.2,1.7,1.9,5.3,1.9,10.6C131,424.8,130.4,428.3,129.1,430.1z"/>
			<path class="st1" d="M148,407.2c-1.7,1.5-3.6,2.8-5.8,3.8v3.8c1.2-0.5,2.6-1.1,4.2-2c1.6-0.9,2.8-1.8,3.8-2.7v25.4h4v-32.6h-2.6
				C150.9,404.3,149.7,405.8,148,407.2z"/>
			<path class="st1" d="M169.8,407.2c-1.7,1.5-3.6,2.8-5.8,3.8v3.8c1.2-0.5,2.6-1.1,4.2-2c1.6-0.9,2.8-1.8,3.8-2.7v25.4h4v-32.6
				h-2.6C172.7,404.3,171.5,405.8,169.8,407.2z"/>
			<path class="st1" d="M204.5,407c-0.9-1.3-1.9-2.3-3.3-3c-1.3-0.7-2.8-1.1-4.6-1.1c-2.4,0-4.3,0.6-5.9,1.9
				c-1.6,1.3-2.7,3.1-3.5,5.4c-0.8,2.3-1.2,5.4-1.2,9.3c0,6.1,1.1,10.5,3.2,13.2c1.8,2.2,4.2,3.4,7.4,3.4c2.4,0,4.3-0.6,5.9-1.9
				c1.6-1.3,2.7-3.1,3.5-5.4c0.8-2.3,1.2-5.4,1.2-9.2c0-3.2-0.2-5.8-0.7-7.7C206.1,409.9,205.4,408.3,204.5,407z M201.3,430.1
				c-1.2,1.8-2.8,2.7-4.6,2.7c-1.8,0-3.4-0.9-4.6-2.7c-1.2-1.8-1.9-5.3-1.9-10.6c0-5.3,0.7-9,2-11c1.1-1.5,2.6-2.3,4.4-2.3
				c1.9,0,3.4,0.9,4.7,2.6c1.2,1.7,1.9,5.3,1.9,10.6C203.2,424.8,202.6,428.3,201.3,430.1z"/>
		</g>
	</g>
</g>
</svg>
