<?xml version="1.0" encoding="utf-8"?>
<!-- Generator: Adobe Illustrator 23.0.5, SVG Export Plug-In . SVG Version: 6.00 Build 0)  -->
<svg version="1.1" id="Layer_1" xmlns="http://www.w3.org/2000/svg" xmlns:xlink="http://www.w3.org/1999/xlink" x="0px" y="0px"
	 viewBox="0 0 512 512" style="enable-background:new 0 0 512 512;" xml:space="preserve">
<style type="text/css">
	.st0{fill:none;}
	.st1{fill:#6161FF;}
</style>
<rect class="st0" width="512" height="512"/>
<g>
	<g>
		<path class="st1" d="M430.2,291.8c-3.6-1.8-7.8-1.4-11,1l-42.4,31.8h-61.4l27.2-27.2l33.9-33.9c4.1-4.1,4.1-10.8,0-14.9
			l-32.1-32.1l9.5-9.5c16.6-16.6,16.6-43.5,0-60.1c0,0,0,0,0,0c-16.6-16.6-43.5-16.6-60.1,0l-9.5,9.5l-32.1-32.1
			c-4.1-4.1-10.8-4.1-14.9,0l-9.5,9.5l-35.4-35.4c-14.8-14.8-38.7-14.8-53.5,0l-39.8,39.8C84.2,153.1,76,172.8,76,193.9
			c0,21,8.2,40.8,23.1,55.7l6.5,6.5l-14.5,14.5c-9.7,9.7-15.1,22.6-15.1,36.4c0,13.7,5.4,26.7,15.1,36.4l66.4,66.4
			c9.7,9.7,22.6,15.1,36.4,15.1c13.7,0,26.7-5.4,36.4-15.1l18.8-18.8h127.7l42.4,31.8c5.4,4,10.9,1.1,11,1c3.6-1.8,5.8-5.4,5.8-9.4
			v-113C436,297.2,433.7,293.5,430.2,291.8L430.2,291.8z M308.6,161.8c8.4-8.4,21.9-8.4,30.3,0c0,0,0,0,0,0c0,0,0,0,0,0
			c8.4,8.4,8.4,21.9,0,30.3l-9.5,9.5l-30.3-30.3L308.6,161.8z M244.7,146.7L354.1,256l-19,19L225.7,165.6L244.7,146.7z M114,234.6
			c-10.9-10.9-16.9-25.4-16.9-40.8c0-15.4,6-29.9,16.9-40.7l39.8-39.8c6.5-6.5,17.1-6.5,23.7,0l35.4,35.4l-92.4,92.4L114,234.6z
			 M215.3,394.7c-5.7,5.7-13.4,8.9-21.5,8.9s-15.7-3.2-21.5-8.9L106,328.3c-5.7-5.7-8.9-13.4-8.9-21.5c0-8.1,3.2-15.7,8.9-21.5
			l104.8-104.8l109.4,109.3L215.3,394.7z M294.3,345.6h75.5v24.1h-99.6L294.3,345.6z M414.9,393.1L390.8,375v-34.6l24.1-18.1V393.1z
			 M414.9,393.1"/>
	</g>
	<path class="st1" d="M240.9,259.8c-2.8-2.8-7-3.8-10.8-2.5L180,274c-14.9,5-24.9,18.8-24.9,34.6c0,20.4,16.6,37.1,37.1,37.1
		c15.7,0,29.6-10,34.5-24.9l16.7-50.1C244.7,266.8,243.7,262.7,240.9,259.8L240.9,259.8z M206.7,314.1c-2.1,6.3-7.9,10.5-14.5,10.5
		c-8.8,0-16-7.2-16-16c0-6.6,4.2-12.4,10.5-14.5l30.1-10L206.7,314.1z M206.7,314.1"/>
</g>
</svg>
