<svg xmlns="http://www.w3.org/2000/svg" xmlns:xlink="http://www.w3.org/1999/xlink" id="bold" x="0" y="0" version="1.1" viewBox="0 0 512 512" xml:space="preserve" style="enable-background:new 0 0 512 512"><style type="text/css">.st0{fill:#6161ff}.st1{fill:none}</style><path d="M384.3,141.6c-2.5,2.8-5.8,4.1-9.2,4.1c-2.8,0-5.8-1-8.1-3.1c-31-27.1-70.6-42.1-111.5-42.1	c-27.5,0-54.5,6.8-78.5,19.6l9.5,9.5c3.5,3.5,4.6,8.8,2.7,13.3c-1.9,4.6-6.4,7.6-11.4,7.6h-40.9c-6.7,0-12.3-5.5-12.3-12.3V97.5	c0-5,3-9.4,7.6-11.4c4.6-1.9,9.9-0.8,13.3,2.7l13.3,13.3c29.2-17,62.7-26.2,96.6-26.2c46.9,0,92.3,17.1,127.7,48.2	C388.2,128.7,388.8,136.4,384.3,141.6z" class="st0"/><path d="M386.3,371.5v40.9c0,5-3,9.4-7.6,11.4c-1.5,0.6-3.1,0.9-4.7,0.9c-3.2,0-6.4-1.2-8.7-3.6l-11.3-11.3	c-29.2,17-62.7,26.2-96.7,26.2c-46.9,0-92.3-17.1-127.7-48.2c-5.1-4.4-5.6-12.2-1.2-17.3c4.4-5.1,12.2-5.6,17.3-1.2	c31,27.1,70.6,42.1,111.5,42.1c27.5,0,54.5-6.9,78.7-19.7l-11.6-11.6c-3.5-3.5-4.6-8.8-2.7-13.3c1.9-4.6,6.4-7.6,11.4-7.6h40.9	C380.9,359.2,386.3,364.7,386.3,371.5z" class="st0"/><g><path d="M293.7,304.9c0,9.9-5.4,17.9-11.9,17.9c-6.5,0-11.9-8-11.9-17.9c0-9.9,5.4-17.9,11.9-17.9 C288.3,287,293.7,295,293.7,304.9z" class="st0"/><path d="M242,304.9c0,9.9-5.4,17.9-11.9,17.9c-6.6,0-11.9-8-11.9-17.9c0-9.9,5.4-17.9,11.9-17.9 C236.7,287,242,295,242,304.9z" class="st0"/><path d="M371,320.8v1.7h-1.7c-9.4,0-12.1,0-13.1,0c-0.6,0-0.6,0-1.2,0c-1,0-3.8,0-15.1,0.1h-1.8l0.1-1.8 c0-0.1,0.2-7.7-3.3-16.7c-2-5.3-4.9-10-8.5-14c-4.5-5.1-10.2-9.1-16.9-12c-13.6-5.8-22.8-10.8-30.8-16.7 c-8.5-6.3-15.7-13.8-22.6-23.5c-6.9,9.7-14.2,17.3-22.7,23.6c-8,5.9-17.2,10.9-30.8,16.7c-6.7,2.9-12.5,7-16.9,12 c-3.6,4.1-6.4,8.8-8.5,14c-3.5,9-3.3,16.6-3.3,16.7l0.1,1.8h-1.8c-11.4-0.1-14.1-0.1-15.1-0.1c-0.5,0-0.5,0-1.2,0 c-1,0-3.8,0-13.1,0h-1.7V321c-0.2-15.4,4.5-31.5,13.5-45.2s21.2-23.8,34.7-28.5c6-2.1,11.7-5,17.1-8.4c4.3-2.8,8.3-6,12-9.4 c6.1-5.8,9.1-10.7,9.3-10.9c9.5-16.3,19-32.7,28.5-49.1c9.5,16.3,18.9,32.6,28.5,48.9c0.2,0.2,3.2,5.1,9.3,10.9 c3.7,3.5,7.7,6.7,12,9.4c5.4,3.5,11.1,6.3,17.1,8.4c13.4,4.8,25.8,14.9,34.7,28.5C366.4,289.3,371.2,305.3,371,320.8z" class="st0"/></g><rect width="512" height="512" class="st1"/></svg>