<?xml version="1.0" encoding="utf-8"?>
<!-- Generator: Adobe Illustrator 23.0.5, SVG Export Plug-In . SVG Version: 6.00 Build 0)  -->
<svg version="1.1" id="bold" xmlns="http://www.w3.org/2000/svg" xmlns:xlink="http://www.w3.org/1999/xlink" x="0px" y="0px"
	 viewBox="0 0 512 512" style="enable-background:new 0 0 512 512;" xml:space="preserve">
<style type="text/css">
	.st0{fill:#FFFFFF;}
	.st1{fill:none;}
</style>
<path class="st0" d="M423.3,106.8c-3.2,3.6-7.6,5.4-12,5.4c-3.7,0-7.5-1.3-10.5-4c-40.4-35.4-92-54.9-145.4-54.9
	c-35.8,0-71,8.9-102.4,25.6l12.4,12.4c4.6,4.6,6,11.5,3.5,17.4c-2.5,6-8.3,9.9-14.8,9.9h-53.3c-8.8,0-16-7.2-16-16V49.3
	c0-6.5,3.9-12.3,9.9-14.8c6-2.5,12.9-1.1,17.4,3.5l17.4,17.4c38.1-22.2,81.7-34.1,126-34.1c61.1,0,120.3,22.3,166.5,62.8
	C428.5,90,429.2,100.1,423.3,106.8z"/>
<path class="st0" d="M426,406.6v53.3c0,6.5-3.9,12.3-9.9,14.8c-2,0.8-4,1.2-6.1,1.2c-4.2,0-8.3-1.6-11.3-4.7L384,456.5
	c-38.1,22.2-81.7,34.2-126.1,34.2c-61.2,0-120.3-22.3-166.5-62.8c-6.6-5.8-7.3-15.9-1.5-22.6c5.8-6.6,15.9-7.3,22.6-1.5
	c40.4,35.4,92,54.9,145.4,54.9c35.8,0,71.1-9,102.6-25.7l-15.1-15.1c-4.6-4.6-6-11.5-3.5-17.4c2.5-6,8.3-9.9,14.8-9.9H410
	C418.9,390.6,426,397.7,426,406.6z"/>
<g>
	<path class="st0" d="M305.2,319.7c0,12.9-7,23.3-15.5,23.3s-15.5-10.4-15.5-23.3c0-12.9,7-23.3,15.5-23.3S305.2,306.8,305.2,319.7z
		"/>
	<path class="st0" d="M237.8,319.7c0,12.9-7,23.3-15.5,23.3c-8.6,0-15.5-10.4-15.5-23.3c0-12.9,7-23.3,15.5-23.3
		C230.9,296.4,237.8,306.8,237.8,319.7z"/>
	<path class="st0" d="M406,340.5l0,2.2l-2.2,0c-12.3,0-15.8,0-17.1,0c-0.8,0-0.8,0-1.5,0c-1.3,0-4.9,0-19.7,0.1l-2.3,0l0.1-2.3
		c0-0.1,0.2-10-4.3-21.8c-2.6-6.9-6.4-13.1-11.1-18.3c-5.9-6.6-13.3-11.9-22.1-15.7c-17.7-7.6-29.7-14.1-40.1-21.8
		c-11.1-8.2-20.5-18-29.5-30.6c-9,12.7-18.5,22.6-29.6,30.8c-10.4,7.7-22.4,14.2-40.1,21.8c-8.8,3.8-16.3,9.1-22.1,15.7
		c-4.7,5.3-8.4,11.5-11.1,18.3c-4.5,11.8-4.3,21.7-4.3,21.8l0.1,2.3l-2.3,0c-14.8-0.1-18.4-0.1-19.7-0.1c-0.7,0-0.7,0-1.5,0
		c-1.3,0-4.9,0-17.1,0l-2.2,0l0-2.2c-0.3-20.1,5.9-41.1,17.6-58.9c11.7-17.8,27.7-31,45.2-37.2c7.8-2.8,15.3-6.5,22.3-11
		c5.6-3.6,10.8-7.8,15.6-12.3c7.9-7.6,11.9-13.9,12.1-14.2c12.4-21.3,24.8-42.7,37.2-64c12.4,21.3,24.7,42.5,37.1,63.8
		c0.2,0.3,4.2,6.6,12.1,14.2c4.8,4.6,10,8.7,15.6,12.3c7,4.5,14.5,8.2,22.3,11c17.5,6.2,33.6,19.4,45.2,37.2
		C400,299.4,406.3,320.3,406,340.5z"/>
</g>
<rect class="st1" width="512" height="512"/>
</svg>
