<?xml version="1.0" encoding="utf-8"?>
<!-- Generator: Adobe Illustrator 23.0.5, SVG Export Plug-In . SVG Version: 6.00 Build 0)  -->
<svg version="1.1" id="Layer_1" xmlns="http://www.w3.org/2000/svg" xmlns:xlink="http://www.w3.org/1999/xlink" x="0px" y="0px"
	 viewBox="0 0 512 512" style="enable-background:new 0 0 512 512;" xml:space="preserve">
<style type="text/css">
	.st0{fill:#FFFFFF;}
	.st1{fill:none;}
</style>
<g>
	<g>
		<g>
			<path class="st0" d="M506,208.2c-0.2-9.3-4-17.8-10.7-24.1L327.7,16.5c-13.9-13.9-35.8-13.9-49.7,0L16.5,277.9
				C9.6,284.8,5.8,294.2,6,303.8c0.2,9.3,4,17.8,10.7,24.1l35.7,35.7c6.2,6.2,16,6.9,23,1.7c20.5-15.1,49-13.2,66.4,4.6
				c17.8,18.2,19.9,46.8,5,66.5c-5.3,7-4.6,16.9,1.6,23.1l35.9,35.9c6.7,6.7,15.8,10.5,25.1,10.5c0.2,0,0.5,0,0.7,0
				c9.3-0.2,17.8-4,24.1-10.7L495.5,234C502.4,227.2,506.2,217.7,506,208.2z M209.2,470.4l-26-26c15.8-32.1,10-72.4-16.1-99.2
				c-26-26.6-66.5-32.7-99.4-16.4l-26-26L302.8,41.6l167.6,167.6L209.2,470.4z"/>
		</g>
	</g>
	<g>
		<g>
			<path class="st0" d="M224,93l8.1-8c4.7-4.7,12.3-4.6,17,0.1l28.5,28.9c4.7,4.7,4.6,12.3-0.1,17l-8.1,8c-4.7,4.7-12.3,4.6-17-0.1
				L223.9,110C219.2,105.3,219.3,97.7,224,93z"/>
		</g>
	</g>
	<g>
		<g>
			<path class="st0" d="M373.6,243.3l8-8.1c4.7-4.7,12.2-4.8,17-0.1l28.9,28.5c4.7,4.7,4.8,12.2,0.1,17l-8,8.1
				c-4.7,4.7-12.2,4.8-17,0.1l-28.9-28.5C369,255.6,369,248,373.6,243.3z"/>
		</g>
	</g>
	<g>
		<g>
			<path class="st0" d="M298.8,167.8l8-8c4.7-4.7,12.3-4.7,17,0l29,29c4.7,4.7,4.7,12.3,0,17l-8,8c-4.7,4.7-12.3,4.7-17,0l-29-29
				C294.1,180.1,294.1,172.5,298.8,167.8z"/>
		</g>
	</g>
	<g>
		<path class="st0" d="M287.2,283.8c5.3,5.3,6.7,12.4,3.2,15.9s-10.6,2.1-15.9-3.2c-5.3-5.3-6.7-12.4-3.2-15.9
			S281.9,278.5,287.2,283.8z"/>
		<path class="st0" d="M259.6,311.4c5.3,5.3,6.7,12.4,3.2,15.9s-10.6,2.1-15.9-3.2s-6.7-12.4-3.2-15.9
			C247.2,304.7,254.4,306.1,259.6,311.4z"/>
		<path class="st0" d="M337,251.1l0.9,0.9l-0.9,0.9c-5,5-6.5,6.5-7,7c-0.3,0.3-0.3,0.3-0.6,0.6c-0.5,0.6-2,2-8,8.1l-0.9,0.9l-0.9-1
			c0,0-4-4.2-10.7-7.2c-3.9-1.7-8-2.7-12-3c-5.1-0.3-10.3,0.6-15.5,2.7c-10.3,4.1-17.9,6.4-25.3,7.5c-7.9,1.2-15.8,1-24.6-0.5
			c1.5,8.9,1.7,16.8,0.5,24.7c-1.1,7.4-3.3,15-7.5,25.3c-2.1,5.2-3,10.4-2.7,15.5c0.2,4.1,1.2,8.1,3,12c3,6.7,7.1,10.7,7.2,10.7
			l1,0.9l-0.9,0.9c-6.1,6-7.6,7.5-8.1,8c-0.3,0.3-0.3,0.3-0.6,0.6c-0.5,0.5-2,2-7,7l-0.9,0.9l-0.9-0.9c-8.4-8.1-14.4-19.2-16.9-31.3
			c-2.5-12.1-1.4-24.1,3.3-33.8c2.1-4.3,3.6-8.9,4.6-13.6c0.8-3.8,1.2-7.6,1.3-11.4c0.1-6.4-0.8-10.5-0.9-10.8
			c-3.7-13.8-7.3-27.6-11-41.4c13.8,3.6,27.5,7.3,41.3,10.9c0.2,0.1,4.4,1,10.8,0.9c3.8-0.1,7.7-0.5,11.4-1.3
			c4.7-1,9.3-2.6,13.6-4.6c9.7-4.6,21.7-5.8,33.8-3.3C317.7,236.7,328.9,242.7,337,251.1z"/>
	</g>
</g>
<rect class="st1" width="512" height="512"/>
</svg>
