<?xml version="1.0" encoding="utf-8"?>
<!-- Generator: Adobe Illustrator 23.0.5, SVG Export Plug-In . SVG Version: 6.00 Build 0)  -->
<svg version="1.1" id="Layer_1" xmlns="http://www.w3.org/2000/svg" xmlns:xlink="http://www.w3.org/1999/xlink" x="0px" y="0px"
	 viewBox="0 0 128 128" style="enable-background:new 0 0 128 128;" xml:space="preserve">
<style type="text/css">
	.st0{fill:none;}
	.st1{fill:#4444C6;}
</style>
<rect class="st0" width="128" height="128"/>
<g>
	<path class="st1" d="M96.8,87V75.1c0-1.3-1-2.3-2.3-2.3H80.4c-1.3,0-2.3,1-2.3,2.3v11.7h-4.7V75.1c0-1.3-1-2.3-2.3-2.3H57
		c-1.3,0-2.3,1-2.3,2.3v11.7H50V75.1c0-1.3-1-2.3-2.3-2.3H33.5c-1.3,0-2.3,1-2.3,2.3V87c-4,0.7-7,4.2-7,8.4c0,4.7,3.9,8.6,8.6,8.6
		h62.5c4.7,0,8.6-3.9,8.6-8.6C103.8,91.2,100.8,87.7,96.8,87z M56.3,91.5c-0.6,1.2-0.9,2.5-0.9,3.9s0.3,2.7,0.9,3.9H40.4
		c0.6-1.2,0.9-2.5,0.9-3.9s-0.3-2.7-0.9-3.9H56.3z M60.1,95.4c0-2.2,1.8-3.9,3.9-3.9c2.1,0,3.9,1.8,3.9,3.9s-1.8,3.9-3.9,3.9
		S60.1,97.6,60.1,95.4z M71.7,91.5h15.9c-0.6,1.2-0.9,2.5-0.9,3.9s0.3,2.7,0.9,3.9H71.7c0.6-1.2,0.9-2.5,0.9-3.9
		S72.3,92.7,71.7,91.5z M82.8,77.4h9.4v9.4h-9.4V77.4z M59.3,77.4h9.4v9.4h-9.4C59.3,86.8,59.3,77.4,59.3,77.4z M35.9,77.4h9.4v9.4
		h-9.4V77.4z M28.8,95.4c0-2.2,1.8-3.9,3.9-3.9c2.2,0,3.9,1.8,3.9,3.9s-1.8,3.9-3.9,3.9S28.8,97.6,28.8,95.4z M95.3,99.3
		c-2.2,0-3.9-1.8-3.9-3.9s1.8-3.9,3.9-3.9s3.9,1.8,3.9,3.9S97.4,99.3,95.3,99.3z"/>
	<path class="st1" d="M64,52c3.9,0,7-3.2,7-7s-3.2-7-7-7c-3.9,0-7,3.2-7,7S60.1,52,64,52z M64,42.6c1.3,0,2.3,1.1,2.3,2.3
		c0,1.3-1.1,2.3-2.3,2.3s-2.3-1.1-2.3-2.3C61.7,43.6,62.7,42.6,64,42.6z"/>
	<path class="st1" d="M30.3,69.5c0.9-0.9,0.9-2.4,0-3.3c-2.1-2.1-2.1-5.6,0-7.7c1-1,2.4-1.6,3.9-1.6s2.8,0.6,3.9,1.6
		c2.1,2.1,2.1,5.6,0,7.7c-0.9,0.9-0.9,2.4,0,3.3c0.5,0.5,1.1,0.7,1.7,0.7s1.2-0.2,1.7-0.7c1.9-1.9,3-4.5,3-7.2s-1.1-5.3-3-7.2
		c-1.4-1.4-3-2.3-4.8-2.7v-5.1h6.4v2.3c0,1.3,1,2.3,2.3,2.3h3.9c0.4,0.8,0.8,1.6,1.3,2.3l-2,3.4c-0.6,1.1-0.3,2.6,0.9,3.2l8.1,4.7
		c0.5,0.3,1.2,0.4,1.8,0.2c0.6-0.2,1.1-0.6,1.4-1.1l2-3.4c0.9,0.1,1.7,0.1,2.6,0l2,3.4c0.3,0.5,0.8,0.9,1.4,1.1
		c0.2,0.1,0.4,0.1,0.6,0.1c0.4,0,0.8-0.1,1.2-0.3l8.1-4.7c1.1-0.6,1.5-2.1,0.9-3.2l-2-3.4c0.5-0.7,0.9-1.5,1.3-2.3h3.9
		c1.3,0,2.3-1,2.3-2.3v-2.3h6.4v5.1c-1.8,0.4-3.5,1.3-4.8,2.7c-1.9,1.9-3,4.5-3,7.2s1.1,5.3,3,7.2c0.9,0.9,2.4,0.9,3.3,0
		s0.9-2.4,0-3.3c-2.1-2.1-2.1-5.6,0-7.7c1-1,2.4-1.6,3.9-1.6s2.8,0.6,3.9,1.6c2.1,2.1,2.1,5.6,0,7.7c-0.9,0.9-0.9,2.4,0,3.3
		c0.5,0.5,1.1,0.7,1.7,0.7s1.2-0.2,1.7-0.7c1.9-1.9,3-4.5,3-7.2s-1.1-5.3-3-7.2c-1.4-1.4-3-2.3-4.8-2.7v-7.5c0-1.3-1-2.3-2.3-2.3
		h-8.8v-2.3c0-1.3-1-2.3-2.3-2.3h-3.9c-0.4-0.8-0.8-1.6-1.3-2.3l2-3.4c0.6-1.1,0.3-2.6-0.9-3.2l-8.1-4.7c-0.5-0.3-1.2-0.4-1.8-0.2
		c-0.6,0.2-1.1,0.6-1.4,1.1l-2,3.4c-0.9-0.1-1.8-0.1-2.6,0l-2-3.4c-0.3-0.5-0.8-0.9-1.4-1.1c-0.6-0.2-1.2-0.1-1.8,0.2L49.4,29
		c-1.1,0.6-1.5,2.1-0.9,3.2l2,3.4c-0.5,0.7-0.9,1.5-1.3,2.3h-3.9c-1.3,0-2.3,1-2.3,2.3v2.3h-8.8c-1.3,0-2.3,1-2.3,2.3v7.5
		c-1.8,0.4-3.5,1.3-4.8,2.7c-1.9,1.9-3,4.5-3,7.2s1.1,5.3,3,7.2C27.9,70.4,29.4,70.4,30.3,69.5L30.3,69.5z M47.6,42.6h3.2
		c1,0,1.9-0.6,2.2-1.6c0.5-1.4,1.2-2.6,2.1-3.7c0.6-0.8,0.7-1.8,0.2-2.7l-1.6-2.7l4.1-2.3l1.6,2.7c0.5,0.9,1.5,1.3,2.5,1.1
		c1.5-0.3,2.8-0.3,4.3,0c1,0.2,2-0.3,2.5-1.1l1.6-2.7l4.1,2.3l-1.6,2.7c-0.5,0.9-0.4,1.9,0.2,2.7c0.9,1.1,1.6,2.3,2.1,3.7
		c0.3,0.9,1.2,1.6,2.2,1.6h3.2v4.7h-3.2c-1,0-1.9,0.6-2.2,1.6c-0.5,1.4-1.2,2.6-2.1,3.7c-0.6,0.8-0.7,1.8-0.2,2.7l1.6,2.7l-4.1,2.3
		l-1.6-2.7c-0.4-0.7-1.2-1.2-2-1.2c-0.1,0-0.3,0-0.4,0c-1.5,0.3-2.8,0.3-4.3,0c-1-0.2-2,0.3-2.5,1.1l-1.6,2.7L53.8,58l1.6-2.7
		c0.5-0.9,0.4-1.9-0.2-2.7c-0.9-1.1-1.6-2.3-2.1-3.7c-0.3-0.9-1.2-1.6-2.2-1.6h-3.2L47.6,42.6z"/>
</g>
</svg>
