<?xml version="1.0" encoding="utf-8"?>
<!-- Generator: Adobe Illustrator 23.0.5, SVG Export Plug-In . SVG Version: 6.00 Build 0)  -->
<svg version="1.1" id="Layer_1" xmlns="http://www.w3.org/2000/svg" xmlns:xlink="http://www.w3.org/1999/xlink" x="0px" y="0px"
	 viewBox="0 0 128 128" style="enable-background:new 0 0 128 128;" xml:space="preserve">
<style type="text/css">
	.st0{fill:#6161FF;}
	.st1{fill:#FFFFFF;}
</style>
<path class="st0" d="M100,128H28c-15.5,0-28-12.5-28-28V28C0,12.5,12.5,0,28,0h72c15.5,0,28,12.5,28,28v72
	C128,115.5,115.5,128,100,128z"/>
<g>
	<path class="st1" d="M33.9,87.9c-3.4,0-6.2,2.8-6.2,6.2c0,3.4,2.8,6.2,6.2,6.2c3.4,0,6.2-2.8,6.2-6.2
		C40.1,90.7,37.3,87.9,33.9,87.9L33.9,87.9z M33.9,87.9"/>
	<path class="st1" d="M33.9,76.2c-9.9,0-17.9,8-17.9,17.9S24,112,33.9,112s17.9-8,17.9-17.9S43.7,76.2,33.9,76.2L33.9,76.2z
		 M33.9,106c-6.5,0-11.8-5.3-11.8-11.8c0-6.5,5.3-11.8,11.8-11.8s11.9,5.3,11.9,11.8C45.7,100.7,40.4,106,33.9,106L33.9,106z
		 M33.9,106"/>
	<path class="st1" d="M85.5,82.3c-8.2,0-14.9,6.7-14.9,14.9S77.3,112,85.5,112s14.9-6.7,14.9-14.9S93.7,82.3,85.5,82.3L85.5,82.3z
		 M85.5,106.4c-5.1,0-9.2-4.1-9.2-9.2c0-5.1,4.1-9.2,9.2-9.2c5.1,0,9.2,4.1,9.2,9.2C94.7,102.2,90.6,106.4,85.5,106.4L85.5,106.4z
		 M85.5,106.4"/>
	<g>
		<path class="st1" d="M88.3,97.1c0,1.6-1.3,2.8-2.8,2.8c-1.6,0-2.8-1.3-2.8-2.8c0-1.6,1.3-2.8,2.8-2.8C87,94.3,88.3,95.6,88.3,97.1
			L88.3,97.1z M88.3,97.1"/>
		<path class="st1" d="M80.8,21.3l1,0.5c2.1,1.1,3.4,3.2,3.4,5.6v20.4l5.6,1.7V27.4c0-4.5-2.5-8.6-6.5-10.6l-1-0.5
			c-1.4-0.7-3.1-0.1-3.8,1.3C78.9,18.9,79.4,20.6,80.8,21.3L80.8,21.3z M80.8,21.3"/>
	</g>
	<path class="st1" d="M110,61.3L72.8,49.9V38.4c0-7.4-6-13.4-13.4-13.4H18.8c-1.6,0-2.8,1.3-2.8,2.8c0,1.6,1.3,2.8,2.8,2.8H22v43.2
		c3.5-2,7.5-3.2,11.9-3.2c12.9,0,23.5,10.5,23.5,23.5l7.7,1.4c0.9-10.5,9.7-18.8,20.4-18.8c11.3,0,20.5,9.2,20.5,20.5
		c0,0.9-0.1,1.7-0.2,2.6l3.4,0.2c1.6,0,2.8-1.3,2.8-2.8V64C112,62.8,111.2,61.7,110,61.3L110,61.3z M67.2,48.2l-15.5-4.4V30.7h7.7
		c4.3,0,7.7,3.5,7.7,7.7V48.2z M81.9,64.7c0,1.6-1.3,2.8-2.8,2.8c-1.6,0-2.8-1.3-2.8-2.8v-3.2c0-1.6,1.3-2.8,2.8-2.8
		c1.6,0,2.8,1.3,2.8,2.8V64.7z M90.9,67.4c0,1.6-1.3,2.8-2.8,2.8c-1.6,0-2.8-1.3-2.8-2.8v-3.2c0-1.6,1.3-2.8,2.8-2.8
		c1.6,0,2.8,1.3,2.8,2.8V67.4z M99.9,70.4c0,1.6-1.3,2.8-2.8,2.8c-1.6,0-2.8-1.3-2.8-2.8v-3.2c0-1.6,1.3-2.8,2.8-2.8
		c1.6,0,2.8,1.3,2.8,2.8V70.4z M99.9,70.4"/>
</g>
</svg>
