<?xml version="1.0" encoding="utf-8"?>
<!-- Generator: Adobe Illustrator 23.0.5, SVG Export Plug-In . SVG Version: 6.00 Build 0)  -->
<svg version="1.1" id="Layer_1" xmlns="http://www.w3.org/2000/svg" xmlns:xlink="http://www.w3.org/1999/xlink" x="0px" y="0px"
	 viewBox="0 0 128 128" style="enable-background:new 0 0 128 128;" xml:space="preserve">
<style type="text/css">
	.st0{fill:none;}
	.st1{fill:#4444C6;}
</style>
<rect class="st0" width="128" height="128"/>
<g>
	<g>
		<path class="st1" d="M103.9,43.1L98.1,26c-0.4-1.2-1.5-2-2.7-2H32.6c-1.2,0-2.3,0.8-2.7,2l-5.7,17.1c-0.1,0.3-0.1,0.5-0.1,0.8
			c0,0,0,0,0,0.1v2.9c0,4.5,2.1,8.7,5.7,11.4c0,0,0,0,0,0.1v37.1c0,4.7,3.8,8.6,8.6,8.6h51.4c4.7,0,8.6-3.8,8.6-8.6V58.3
			c0,0,0,0,0-0.1c3.6-2.7,5.7-6.9,5.7-11.4V44c0,0,0,0,0-0.1C104,43.6,103.9,43.4,103.9,43.1z M84,29.7h9.4l3.8,11.4H84V29.7z
			 M66.9,29.7h11.4v11.4H66.9V29.7z M49.7,29.7h11.4v11.4H49.7V29.7z M34.6,29.7H44v11.4H30.8L34.6,29.7z M69.7,98.3H58.3V75.4h11.4
			L69.7,98.3L69.7,98.3z M92.6,95.4c0,1.6-1.3,2.9-2.9,2.9H75.4V72.6c0-1.6-1.3-2.9-2.9-2.9H55.4c-1.6,0-2.9,1.3-2.9,2.9v25.7H38.3
			c-1.6,0-2.9-1.3-2.9-2.9V60.9c4,0.8,8.2-0.1,11.4-2.6c5.1,3.7,12,3.7,17.1,0c5.1,3.7,12,3.7,17.1,0c3.2,2.5,7.4,3.4,11.4,2.6V95.4
			L92.6,95.4z M89.7,55.4c-2.5,0-4.8-1.1-6.4-3c-1-1.2-2.8-1.3-4-0.3c-0.1,0.1-0.2,0.2-0.3,0.3c-3.2,3.5-8.6,3.8-12.2,0.7
			c-0.2-0.2-0.5-0.4-0.7-0.7c-1.1-1.2-3-1.2-4.2-0.1c0,0-0.1,0.1-0.1,0.1c-3.2,3.5-8.6,3.8-12.2,0.7c-0.2-0.2-0.5-0.4-0.7-0.7
			c-1.1-1.2-3-1.2-4.2-0.1c0,0-0.1,0.1-0.1,0.1c-1.6,1.9-3.9,3-6.4,3c-4.7,0-8.6-3.8-8.6-8.6h68.6C98.3,51.6,94.4,55.4,89.7,55.4z"
			/>
	</g>
</g>
</svg>
