<?xml version="1.0" encoding="utf-8"?>
<!-- Generator: Adobe Illustrator 23.0.5, SVG Export Plug-In . SVG Version: 6.00 Build 0)  -->
<svg version="1.1" id="Layer_1" xmlns="http://www.w3.org/2000/svg" xmlns:xlink="http://www.w3.org/1999/xlink" x="0px" y="0px"
	 viewBox="0 0 620 128" style="enable-background:new 0 0 620 128;" xml:space="preserve">
<style type="text/css">
	.st0{fill:#8888A5;}
</style>
<g>
	<path class="st0" d="M198.6,65.1c0,4.1-0.6,7.8-1.8,10.9c-1.2,3.2-2.9,5.8-5,7.9s-4.7,3.7-7.6,4.8c-3,1.1-6.1,1.6-9.6,1.6
		c-3.4,0-6.6-0.5-9.6-1.6s-5.5-2.7-7.6-4.8c-2.1-2.1-3.8-4.8-5-7.9c-1.2-3.2-1.8-6.8-1.8-10.9s0.6-7.7,1.9-10.9
		c1.2-3.1,2.9-5.8,5.1-7.9c2.2-2.1,4.7-3.7,7.6-4.8c2.9-1.1,6.1-1.6,9.5-1.6s6.5,0.5,9.5,1.6c2.9,1.1,5.5,2.7,7.6,4.8
		c2.2,2.1,3.9,4.8,5.1,7.9C198,57.4,198.6,61,198.6,65.1z M188.1,65.1c0-5.5-1.2-9.7-3.7-12.5c-2.5-2.9-5.7-4.3-9.8-4.3
		s-7.3,1.4-9.8,4.3c-2.5,2.8-3.7,7-3.7,12.6s1.2,9.7,3.6,12.6c2.4,2.8,5.7,4.3,9.8,4.3s7.4-1.4,9.8-4.3
		C186.8,74.9,188.1,70.7,188.1,65.1z"/>
	<path class="st0" d="M231.2,85.9c-1.1,0.5-2.3,1-3.7,1.3c-1.4,0.4-3,0.6-4.9,0.6c-2.4,0-4.6-0.3-6.7-1c-2.1-0.7-4-1.7-5.5-3.2
		c-1.6-1.5-2.8-3.4-3.8-5.7s-1.4-5.2-1.4-8.6c0-3.1,0.5-5.8,1.4-8.1s2.2-4.3,4-5.9c1.7-1.6,3.8-2.8,6.1-3.6c2.4-0.8,5-1.2,7.9-1.2
		c2.7,0,5.3,0.3,7.6,1s4.1,1.5,5.5,2.4c0.9,0.6,1.7,1.3,2.3,2.1s0.8,1.8,0.8,3v30.5c0,2.7-0.5,5-1.5,7s-2.3,3.5-4,4.8
		c-1.7,1.2-3.7,2.1-5.9,2.7c-2.3,0.6-4.7,0.9-7.4,0.9s-5.1-0.3-7.2-0.8c-2-0.5-3.5-1.1-4.5-1.7c-1.7-1.1-2.6-2.6-2.6-4.4
		c0-1,0.2-1.9,0.6-2.6c0.4-0.7,0.9-1.3,1.5-1.7c1.4,0.8,3,1.6,5,2.2s4,0.9,6.2,0.9c3.2,0,5.6-0.6,7.4-1.8c1.8-1.2,2.7-3.2,2.7-5.9
		L231.2,85.9L231.2,85.9z M224.4,80.1c1.5,0,2.8-0.2,3.9-0.6c1.1-0.4,2-0.9,2.8-1.5V60.1c-0.7-0.4-1.6-0.8-2.6-1.1s-2.1-0.5-3.5-0.5
		c-2.9,0-5.2,0.9-7,2.6c-1.8,1.8-2.6,4.5-2.6,8.2c0,2,0.2,3.7,0.7,5.1c0.4,1.4,1.1,2.5,1.9,3.3c0.8,0.8,1.8,1.5,2.9,1.8
		C221.9,79.9,223.1,80.1,224.4,80.1z"/>
	<path class="st0" d="M258.9,74.9c0.7,2.7,2.1,4.6,4.1,5.9c2,1.2,4.5,1.8,7.4,1.8c2.2,0,4.3-0.3,6.1-1c1.9-0.7,3.4-1.4,4.5-2.1
		c0.7,0.4,1.3,1,1.8,1.7s0.7,1.5,0.7,2.4c0,1.1-0.4,2-1.1,2.8s-1.7,1.5-2.9,2.1c-1.2,0.6-2.7,1-4.4,1.3c-1.7,0.3-3.5,0.5-5.5,0.5
		c-3.1,0-5.9-0.4-8.5-1.3c-2.6-0.8-4.7-2.1-6.6-3.8c-1.8-1.7-3.2-3.8-4.3-6.4c-1-2.5-1.5-5.5-1.5-8.9c0-3.3,0.5-6.1,1.5-8.5
		s2.4-4.5,4.1-6.1c1.7-1.6,3.7-2.8,6-3.6s4.7-1.2,7.2-1.2c2.6,0,5,0.4,7.1,1.2c2.2,0.8,4,2,5.5,3.4c1.5,1.5,2.7,3.2,3.6,5.2
		s1.3,4.2,1.3,6.6c0,1.5-0.4,2.6-1.1,3.3c-0.8,0.7-1.8,1.2-3.2,1.4L258.9,74.9z M267.6,58.1c-2.6,0-4.7,0.9-6.5,2.6
		c-1.7,1.7-2.7,4.2-2.9,7.3l17.6-2.6c-0.2-2-1-3.7-2.3-5.1C272.2,58.8,270.2,58.1,267.6,58.1z"/>
	<path class="st0" d="M301.1,74.9c0.7,2.7,2.1,4.6,4.1,5.9c2,1.2,4.5,1.8,7.4,1.8c2.2,0,4.3-0.3,6.1-1c1.9-0.7,3.4-1.4,4.5-2.1
		c0.7,0.4,1.3,1,1.8,1.7s0.7,1.5,0.7,2.4c0,1.1-0.4,2-1.1,2.8s-1.7,1.5-2.9,2.1c-1.2,0.6-2.7,1-4.4,1.3c-1.7,0.3-3.5,0.5-5.5,0.5
		c-3.1,0-5.9-0.4-8.5-1.3c-2.6-0.8-4.7-2.1-6.6-3.8c-1.8-1.7-3.2-3.8-4.3-6.4c-1-2.5-1.5-5.5-1.5-8.9c0-3.3,0.5-6.1,1.5-8.5
		s2.4-4.5,4.1-6.1s3.7-2.8,6-3.6s4.7-1.2,7.2-1.2c2.6,0,5,0.4,7.1,1.2c2.2,0.8,4,2,5.5,3.4c1.5,1.5,2.7,3.2,3.6,5.2s1.3,4.2,1.3,6.6
		c0,1.5-0.4,2.6-1.1,3.3c-0.8,0.7-1.8,1.2-3.2,1.4L301.1,74.9z M309.9,58.1c-2.6,0-4.7,0.9-6.5,2.6c-1.7,1.7-2.7,4.2-2.9,7.3
		l17.6-2.6c-0.2-2-1-3.7-2.3-5.1C314.4,58.8,312.4,58.1,309.9,58.1z"/>
	<path class="st0" d="M383.8,41.2c0.3,0.4,0.5,1,0.8,1.7c0.2,0.7,0.4,1.5,0.4,2.3c0,1.4-0.3,2.5-1,3.2s-1.5,1.1-2.6,1.1h-19.1v12.6
		h18.9c0.3,0.4,0.5,1,0.8,1.7c0.2,0.7,0.4,1.5,0.4,2.3c0,1.4-0.3,2.5-1,3.2s-1.5,1.1-2.6,1.1h-16.2v18.7c-0.5,0.1-1.1,0.2-2,0.4
		c-0.9,0.2-1.8,0.2-2.7,0.2c-2,0-3.4-0.4-4.3-1.1c-0.8-0.7-1.3-2-1.3-3.7V46.6c0-1.7,0.5-3,1.5-4s2.3-1.5,4-1.5h26V41.2z"/>
	<path class="st0" d="M391.4,40.5c0-1.5,0.5-2.8,1.6-3.9c1.1-1.1,2.5-1.6,4.2-1.6s3.1,0.5,4.1,1.6c1.1,1.1,1.6,2.4,1.6,3.9
		c0,1.6-0.5,2.9-1.6,4s-2.4,1.6-4.1,1.6s-3.1-0.5-4.2-1.6C392,43.5,391.4,42.1,391.4,40.5z M392.2,52c0.4-0.1,1-0.2,1.9-0.4
		c0.8-0.2,1.7-0.2,2.6-0.2c1.9,0,3.3,0.3,4.2,1c0.9,0.7,1.3,1.9,1.3,3.6v33.1c-0.4,0.1-1,0.2-1.9,0.4c-0.8,0.2-1.7,0.2-2.6,0.2
		c-1.9,0-3.3-0.3-4.2-1c-0.9-0.7-1.3-1.9-1.3-3.6V52z"/>
	<path class="st0" d="M435.4,60.1c-1.3-1.1-3-1.6-5.3-1.6c-1.5,0-2.9,0.2-4.2,0.6c-1.3,0.4-2.4,0.8-3.4,1.4v28.6
		c-0.5,0.1-1.1,0.2-1.9,0.4c-0.8,0.2-1.7,0.2-2.7,0.2c-1.8,0-3.2-0.3-4.1-1s-1.3-1.9-1.3-3.6V59.7c0-1.3,0.3-2.3,0.8-3.1
		s1.3-1.6,2.5-2.3c1.5-1.1,3.6-1.9,6.1-2.6c2.5-0.7,5.3-1.1,8.4-1.1c5.4,0,9.6,1.2,12.6,3.6c3,2.4,4.5,5.9,4.5,10.6v24.4
		c-0.4,0.1-1,0.2-1.9,0.4c-0.8,0.2-1.7,0.2-2.6,0.2c-1.9,0-3.3-0.3-4.2-1c-0.9-0.7-1.3-1.9-1.3-3.6v-20
		C437.4,62.8,436.7,61.1,435.4,60.1z"/>
	<path class="st0" d="M471.9,50.6c5.2,0,9.3,1.1,12.4,3.3s4.6,5.6,4.6,10.3v18.3c0,1.3-0.3,2.3-0.9,3s-1.4,1.4-2.4,2
		c-1.5,0.9-3.3,1.6-5.6,2.1c-2.3,0.5-4.9,0.8-7.8,0.8c-5.3,0-9.4-1-12.5-3c-3-2-4.5-5.1-4.5-9.1c0-3.5,1.1-6.2,3.4-8.1
		c2.2-1.9,5.5-3,9.8-3.4l10.8-1.1v-1.4c0-2-0.7-3.5-2.2-4.4s-3.5-1.4-6.1-1.4c-2.1,0-4.1,0.3-6,0.8c-2,0.5-3.7,1.1-5.2,1.9
		c-0.6-0.4-1.1-1-1.5-1.7s-0.6-1.5-0.6-2.3c0-1.1,0.2-1.9,0.8-2.6c0.5-0.7,1.3-1.3,2.4-1.8c1.5-0.6,3.3-1.1,5.2-1.4
		C467.9,50.7,469.8,50.6,471.9,50.6z M472.2,82.8c1.5,0,2.9-0.1,4.2-0.4c1.3-0.3,2.2-0.6,2.8-1.1v-8.8l-7.7,0.7
		c-2.1,0.2-3.7,0.7-4.8,1.4c-1.1,0.7-1.7,1.8-1.7,3.4c0,1.5,0.6,2.7,1.7,3.6C467.8,82.4,469.6,82.8,472.2,82.8z"/>
	<path class="st0" d="M521.6,60.1c-1.3-1.1-3-1.6-5.3-1.6c-1.5,0-2.9,0.2-4.2,0.6c-1.3,0.4-2.4,0.8-3.4,1.4v28.6
		c-0.5,0.1-1.1,0.2-1.9,0.4c-0.8,0.2-1.7,0.2-2.7,0.2c-1.8,0-3.2-0.3-4.1-1s-1.3-1.9-1.3-3.6V59.7c0-1.3,0.3-2.3,0.8-3.1
		s1.3-1.6,2.5-2.3c1.5-1.1,3.6-1.9,6.1-2.6c2.5-0.7,5.3-1.1,8.4-1.1c5.4,0,9.6,1.2,12.6,3.6c3,2.4,4.5,5.9,4.5,10.6v24.4
		c-0.4,0.1-1,0.2-1.9,0.4c-0.8,0.2-1.7,0.2-2.6,0.2c-1.9,0-3.3-0.3-4.2-1s-1.3-1.9-1.3-3.6v-20C523.5,62.8,522.9,61.1,521.6,60.1z"
		/>
	<path class="st0" d="M562.9,58.6c-1.6,0-3,0.3-4.4,0.8c-1.3,0.5-2.5,1.3-3.5,2.3s-1.8,2.2-2.3,3.7c-0.6,1.5-0.9,3.2-0.9,5.1
		c0,3.9,1,6.8,3.1,8.8s4.7,3,8,3c1.8,0,3.4-0.2,4.8-0.8c1.3-0.5,2.5-1,3.6-1.6c0.7,0.5,1.3,1.1,1.8,1.8c0.4,0.7,0.7,1.5,0.7,2.4
		c0,1.8-1.1,3.3-3.2,4.4c-2.1,1.2-5,1.7-8.5,1.7c-3,0-5.8-0.4-8.3-1.2c-2.5-0.8-4.7-2.1-6.4-3.7c-1.8-1.7-3.2-3.7-4.2-6.2
		s-1.5-5.4-1.5-8.6c0-3.3,0.5-6.2,1.6-8.7c1.1-2.5,2.5-4.6,4.3-6.2c1.8-1.7,3.9-2.9,6.4-3.7c2.4-0.8,5-1.2,7.8-1.2
		c3.5,0,6.4,0.6,8.5,1.9c2.1,1.2,3.2,2.8,3.2,4.5c0,0.8-0.2,1.6-0.7,2.3c-0.4,0.7-1,1.2-1.5,1.7c-1.1-0.6-2.2-1.1-3.5-1.6
		C566.3,58.8,564.7,58.6,562.9,58.6z"/>
	<path class="st0" d="M588.8,74.9c0.7,2.7,2.1,4.6,4.1,5.9c2,1.2,4.5,1.8,7.4,1.8c2.2,0,4.3-0.3,6.1-1c1.9-0.7,3.4-1.4,4.5-2.1
		c0.7,0.4,1.3,1,1.8,1.7s0.7,1.5,0.7,2.4c0,1.1-0.4,2-1.1,2.8c-0.7,0.8-1.7,1.5-2.9,2.1s-2.7,1-4.4,1.3s-3.5,0.5-5.5,0.5
		c-3.1,0-5.9-0.4-8.5-1.3c-2.6-0.8-4.7-2.1-6.6-3.8c-1.8-1.7-3.2-3.8-4.3-6.4c-1-2.5-1.5-5.5-1.5-8.9c0-3.3,0.5-6.1,1.5-8.5
		s2.4-4.5,4.1-6.1c1.7-1.6,3.7-2.8,6-3.6s4.7-1.2,7.2-1.2c2.6,0,5,0.4,7.1,1.2c2.2,0.8,4,2,5.5,3.4c1.5,1.5,2.7,3.2,3.6,5.2
		c0.9,2,1.3,4.2,1.3,6.6c0,1.5-0.4,2.6-1.1,3.3c-0.8,0.7-1.8,1.2-3.2,1.4L588.8,74.9z M597.6,58.1c-2.6,0-4.7,0.9-6.5,2.6
		c-1.7,1.7-2.7,4.2-2.9,7.3l17.6-2.6c-0.2-2-1-3.7-2.3-5.1C602.1,58.8,600.2,58.1,597.6,58.1z"/>
</g>
<g>
	<path class="st0" d="M61.1,96.7c0,5.5-3,9.9-6.6,9.9s-6.6-4.5-6.6-9.9c0-5.5,3-9.9,6.6-9.9S61.1,91.2,61.1,96.7z"/>
	<path class="st0" d="M89.8,96.7c0,5.5-3,9.9-6.6,9.9s-6.6-4.5-6.6-9.9c0-5.5,3-9.9,6.6-9.9S89.8,91.2,89.8,96.7z"/>
	<path class="st0" d="M132.8,105.6v0.9h-0.9c-5.2,0-6.7,0-7.3,0c-0.4,0-0.4,0-0.7,0c-0.6,0-2.1,0-8.4,0.1h-1v-1c0,0,0.1-4.3-1.8-9.3
		c-1.1-2.9-2.7-5.6-4.7-7.8c-2.5-2.8-5.7-5.1-9.4-6.7c-7.5-3.2-12.7-6-17.1-9.3c-4.7-3.5-8.8-7.7-12.6-13.1C65,64.8,61,69,56.2,72.6
		c-4.4,3.3-9.5,6.1-17.1,9.3c-3.8,1.6-6.9,3.9-9.4,6.7c-2,2.3-3.6,4.9-4.7,7.8c-1.9,5-1.8,9.3-1.8,9.3v1h-1c-6.3,0-7.8-0.1-8.4-0.1
		c-0.3,0-0.3,0-0.7,0c-0.6,0-2.1,0-7.3,0H4.9v-0.9c-0.1-8.6,2.5-17.5,7.5-25.1s11.8-13.2,19.3-15.9c3.3-1.2,6.5-2.8,9.5-4.7
		c2.4-1.5,4.6-3.3,6.6-5.3c3.4-3.2,5.1-5.9,5.2-6.1c5.3-9.1,10.6-18.2,15.9-27.3c5.3,9.1,10.6,18.1,15.8,27.2
		c0.1,0.1,1.8,2.8,5.2,6.1c2,1.9,4.3,3.7,6.6,5.3c3,1.9,6.2,3.5,9.5,4.7c7.5,2.6,14.3,8.3,19.3,15.9C130.3,88.1,133,97,132.8,105.6z
		"/>
</g>
</svg>
