<?xml version="1.0" encoding="utf-8"?>
<!-- Generator: Adobe Illustrator 23.0.5, SVG Export Plug-In . SVG Version: 6.00 Build 0)  -->
<svg version="1.1" id="Layer_1" xmlns="http://www.w3.org/2000/svg" xmlns:xlink="http://www.w3.org/1999/xlink" x="0px" y="0px"
	 viewBox="0 0 128 128" style="enable-background:new 0 0 128 128;" xml:space="preserve">
<style type="text/css">
	.st0{fill:none;}
	.st1{fill:#4444C6;}
</style>
<rect class="st0" width="128" height="128"/>
<g>
	<path class="st1" d="M74,71.7c-0.1,0-0.1,0-0.2,0v-5.9c0.9-0.6,1.7-1.3,2.4-2c3.3-3.3,5.1-7.7,5.1-12.3v-2.7h5.2
		c6.8,0,12.4-5.6,12.4-12.4c0-1.3-1-2.3-2.3-2.3H83.7c-1.1-5.7-6.1-10-12.2-10H56.5c-6,0-11.1,4.3-12.2,10H31.4
		c-1.3,0-2.3,1.1-2.3,2.3c0,3.3,1.3,6.5,3.6,8.8c2.3,2.3,5.5,3.6,8.8,3.6h5.2v2.7c0,4.7,1.8,9,5.1,12.3c0.8,0.8,1.6,1.4,2.4,2v5.9
		c-0.1,0-0.1,0-0.2,0c-12.4,0-22.4,10.1-22.4,22.4v7.5c0,1.3,1,2.3,2.3,2.3h60.3c1.3,0,2.3-1,2.3-2.3v-7.5
		C96.5,81.8,86.4,71.7,74,71.7L74,71.7z M56.3,84.3v-5.6c2.3,1.2,5,1.9,7.7,1.9c2.7,0,5.4-0.7,7.7-1.9v5.6H56.3z M56.5,28.7h15.1
		c3.4,0,6.3,2.3,7.3,5.4H49.1C50.1,30.9,53,28.7,56.5,28.7L56.5,28.7z M36,41.8c-0.9-0.9-1.5-1.9-1.9-3.1h59.8
		c-1,3.1-3.9,5.4-7.3,5.4H41.4C39.4,44.1,37.4,43.3,36,41.8L36,41.8z M51.3,51.4v-2.7h25.4v2.7c0,3.4-1.3,6.6-3.7,9
		c-1.6,1.6-4.6,3.7-9,3.7c-4.4,0-7.4-2.2-9-3.7C52.6,58,51.3,54.8,51.3,51.4L51.3,51.4z M64,68.9c1.8,0,3.5-0.3,5.2-0.8v6.6
		c-1.6,0.8-3.4,1.2-5.2,1.2c-1.8,0-3.6-0.4-5.2-1.2v-6.6C60.5,68.6,62.2,68.9,64,68.9L64,68.9z M36.2,94.1c0-9,6.7-16.4,15.4-17.6
		v7.7h-0.2c-4,0-7.4,3.3-7.4,7.4v7.7h-7.9V94.1z M48.8,99.3v-7.7c0-1.5,1.2-2.7,2.7-2.7h25.1c1.5,0,2.7,1.2,2.7,2.7v7.7H48.8z
		 M91.8,99.3h-7.9v-7.7c0-4-3.3-7.4-7.4-7.4h-0.2v-7.7c8.7,1.1,15.4,8.6,15.4,17.6V99.3z M91.8,99.3"/>
</g>
</svg>
