<?xml version="1.0" encoding="utf-8"?>
<!-- Generator: Adobe Illustrator 23.0.5, SVG Export Plug-In . SVG Version: 6.00 Build 0)  -->
<svg version="1.1" id="Layer_1" xmlns="http://www.w3.org/2000/svg" xmlns:xlink="http://www.w3.org/1999/xlink" x="0px" y="0px"
	 viewBox="0 0 128 128" style="enable-background:new 0 0 128 128;" xml:space="preserve">
<style type="text/css">
	.st0{fill:none;}
	.st1{fill:#4444C6;}
</style>
<rect class="st0" width="128" height="128"/>
<path class="st1" d="M104,86l0,0.6h-0.6c-3.3,0-4.2,0-4.6,0c-0.2,0-0.2,0-0.4,0c-0.4,0-1.3,0-5.3,0l-0.6,0l0-0.6
	c0,0,0.1-2.7-1.1-5.8c-0.7-1.8-1.7-3.5-3-4.9c-1.6-1.8-3.6-3.2-5.9-4.2c-4.7-2-7.9-3.8-10.7-5.8c-3-2.2-5.5-4.8-7.9-8.2
	c-2.4,3.4-4.9,6-7.9,8.2c-2.8,2.1-6,3.8-10.7,5.8c-2.4,1-4.3,2.4-5.9,4.2c-1.3,1.4-2.3,3.1-3,4.9c-1.2,3.1-1.1,5.8-1.1,5.8l0,0.6
	l-0.6,0c-4,0-4.9,0-5.3,0c-0.2,0-0.2,0-0.4,0c-0.4,0-1.3,0-4.6,0H24l0-0.6c-0.1-5.4,1.6-10.9,4.7-15.7c3.1-4.8,7.4-8.3,12.1-9.9
	c2.1-0.7,4.1-1.7,5.9-2.9c1.5-1,2.9-2.1,4.2-3.3c2.1-2,3.2-3.7,3.2-3.8c3.3-5.7,6.6-11.4,9.9-17.1c3.3,5.7,6.6,11.3,9.9,17
	c0.1,0.1,1.1,1.8,3.2,3.8c1.3,1.2,2.7,2.3,4.2,3.3c1.9,1.2,3.9,2.2,5.9,2.9c4.7,1.7,9,5.2,12.1,9.9C102.4,75,104.1,80.6,104,86z"/>
</svg>
