<svg xmlns="http://www.w3.org/2000/svg" xmlns:xlink="http://www.w3.org/1999/xlink" id="Layer_1" x="0" y="0" version="1.1" viewBox="0 0 128 128" xml:space="preserve" style="enable-background:new 0 0 128 128"><style type="text/css">.st0{fill:#4444c6}.st1{fill:#d2d2d8}.st2{fill:url(#SVGID_1_)}.st3{fill:url(#SVGID_2_)}.st4{fill:#282e5b}.st5{fill:none}</style><circle cx="64" cy="64" r="40" class="st0"/><path d="M96.3,79.8C96.3,79.8,96.3,79.8,96.3,79.8c0,0.1-0.1,0.1-0.1,0.2c0,0,0,0,0,0c-5.9,11.8-18.1,20-32.2,20h0	c-14.1,0-26.3-8.1-32.2-20c0,0,0,0,0,0c0,0,0-0.1-0.1-0.1c0,0,0,0,0,0H34l0-0.3c-0.1-4,1.2-8.2,3.5-11.8c2.3-3.6,5.5-6.2,9-7.4	c1.6-0.6,3.1-1.3,4.5-2.2c1.1-0.7,2.2-1.6,3.1-2.5c1.6-1.5,2.4-2.8,2.4-2.8c2.5-4.3,5-8.5,7.4-12.8c2.5,4.3,4.9,8.5,7.4,12.8	c0,0.1,0.8,1.3,2.4,2.8c1,0.9,2,1.7,3.1,2.5c1.4,0.9,2.9,1.6,4.5,2.2c3.5,1.2,6.7,3.9,9,7.4c2.3,3.6,3.6,7.7,3.5,11.8l0,0.3H96.3z" class="st1"/><linearGradient id="SVGID_1_" x1="31.653" x2="96.347" y1="79.84" y2="79.84" gradientUnits="userSpaceOnUse"><stop offset="0" style="stop-color:#adadad"/><stop offset=".5" style="stop-color:#c9c9c9"/><stop offset="1" style="stop-color:#adadad"/></linearGradient><path d="M96.3,79.8C96.3,79.8,96.3,79.8,96.3,79.8l-64.7,0c0,0,0,0,0,0H96.3z" class="st2"/><linearGradient id="SVGID_2_" x1="64" x2="64" y1="100" y2="28" gradientUnits="userSpaceOnUse"><stop offset="0" style="stop-color:#adadad"/><stop offset=".5" style="stop-color:#c9c9c9"/><stop offset="1" style="stop-color:#adadad"/></linearGradient><rect width="0" height="72" x="64" y="28" class="st3"/><path d="M100,64c0,1.1,0,2.1-0.1,3.2c0,0.1,0,0.3,0,0.4c0,0.1,0,0.2,0,0.3c0,0.1,0,0.3,0,0.4c0,0.1,0,0.3-0.1,0.4	c0,0.1,0,0.2,0,0.3c-0.1,0.8-0.3,1.6-0.4,2.4c0,0.1-0.1,0.3-0.1,0.4c-0.2,0.8-0.4,1.7-0.7,2.5c0,0.2-0.1,0.3-0.1,0.5	c0,0.1-0.1,0.2-0.1,0.2c-0.2,0.6-0.4,1.1-0.6,1.7c-0.1,0.2-0.1,0.3-0.2,0.5c0,0.1-0.1,0.2-0.1,0.2c-0.1,0.2-0.1,0.3-0.2,0.5	c-0.1,0.2-0.1,0.3-0.2,0.5c-0.2,0.4-0.3,0.7-0.5,1.1c0,0.1-0.1,0.2-0.1,0.2H94l0-0.3c0.1-4-1.2-8.2-3.5-11.8c-2.3-3.6-5.5-6.2-9-7.4	c-1.6-0.6-3.1-1.3-4.5-2.2c-1.1-0.7-2.2-1.6-3.1-2.5c-1.6-1.5-2.4-2.8-2.4-2.8C69,48.5,66.5,44.3,64,40c-2.5,4.3-5,8.5-7.4,12.8	c0,0.1-0.8,1.3-2.4,2.8c-1,0.9-2,1.7-3.1,2.5c-1.4,0.9-2.9,1.6-4.5,2.2c-3.5,1.2-6.7,3.9-9,7.4c-2.3,3.6-3.6,7.7-3.5,11.8l0,0.3	h-2.4c0-0.1-0.1-0.2-0.1-0.2c-0.2-0.4-0.3-0.7-0.5-1.1c-0.1-0.2-0.1-0.3-0.2-0.5c-0.1-0.2-0.1-0.3-0.2-0.5c0-0.1-0.1-0.2-0.1-0.2	c-0.1-0.2-0.1-0.3-0.2-0.5c-0.2-0.5-0.4-1.1-0.6-1.7c0-0.1-0.1-0.2-0.1-0.2c-0.1-0.2-0.1-0.3-0.1-0.5c-0.2-0.8-0.5-1.6-0.7-2.5	c0-0.1-0.1-0.3-0.1-0.4c-0.2-0.8-0.3-1.6-0.4-2.4c0-0.1,0-0.2,0-0.3c0-0.1,0-0.3-0.1-0.4c0-0.1,0-0.3,0-0.4c0-0.1,0-0.2,0-0.3	c0-0.1,0-0.3,0-0.4C28,66.1,28,65.1,28,64c0-19.9,16.1-36,36-36h0C83.9,28,100,44.1,100,64z" class="st4"/><path d="M94,79.5l0,0.3h-8.6l0-0.3c0,0,0,0,0,0c0-0.3,0-2.1-0.9-4.3c-0.5-1.4-1.3-2.6-2.2-3.7c-1.2-1.3-2.7-2.4-4.4-3.1	c-3.5-1.5-5.9-2.8-8-4.4c-2.2-1.6-4.1-3.6-5.9-6.1c-1.8,2.5-3.7,4.5-5.9,6.2c-2.1,1.5-4.5,2.8-8,4.4c-1.8,0.8-3.3,1.8-4.4,3.1	c-0.9,1.1-1.7,2.3-2.2,3.7c-0.8,2.2-0.9,4-0.9,4.3c0,0,0,0,0,0l0,0.3H34l0-0.3c-0.1-4,1.2-8.2,3.5-11.8c2.3-3.6,5.5-6.2,9-7.4	c1.6-0.6,3.1-1.3,4.5-2.2c1.1-0.7,2.2-1.6,3.1-2.5c1.6-1.5,2.4-2.8,2.4-2.8c2.5-4.3,5-8.5,7.4-12.8c2.5,4.3,4.9,8.5,7.4,12.8	c0,0.1,0.8,1.3,2.4,2.8c1,0.9,2,1.7,3.1,2.5c1.4,0.9,2.9,1.6,4.5,2.2c3.5,1.2,6.7,3.9,9,7.4C92.8,71.3,94.1,75.5,94,79.5z" class="st0"/><rect width="128" height="128" class="st5"/></svg>