<svg xmlns="http://www.w3.org/2000/svg" xmlns:xlink="http://www.w3.org/1999/xlink" id="Capa_1" x="0" y="0" version="1.1" viewBox="0 0 360 360" xml:space="preserve" style="enable-background:new 0 0 360 360"><style type="text/css">.st0{fill:#6161ff}</style><g><path d="M303.1,0H56.9C25.5,0,0,25.5,0,56.9v246.2C0,334.5,25.5,360,56.9,360h246.2c31.4,0,56.9-25.5,56.9-56.9V56.9 C360,25.5,334.5,0,303.1,0z M322.1,303.1c0,10.5-8.5,19-19,19H56.9c-10.5,0-19-8.5-19-19V56.9c0-10.5,8.5-19,19-19h246.2 c10.5,0,19,8.5,19,19V303.1L322.1,303.1z" class="st0"/></g></svg>