<svg xmlns="http://www.w3.org/2000/svg" xmlns:xlink="http://www.w3.org/1999/xlink" id="Layer_1" x="0" y="0" version="1.1" viewBox="0 0 128 128" xml:space="preserve" style="enable-background:new 0 0 128 128"><style type="text/css">.st0{fill:none}.st1{fill:#4444c6}</style><rect width="128" height="128" class="st0"/><g><path d="M94.9,73.9V54.1c2.7-1,4.7-3.6,4.7-6.6c0-3.9-3.2-7-7-7c-1.7,0-3.3,0.6-4.6,1.7l-17.1-9.9 C71,31.9,71,31.5,71,31c0-3.9-3.2-7-7-7s-7,3.2-7,7c0,0.4,0,0.9,0.1,1.3L40,42.2c-1.2-1.1-2.8-1.7-4.6-1.7c-3.9,0-7,3.2-7,7 c0,3.1,2,5.7,4.7,6.6v19.7c-0.4,0.1-0.8,0.3-1.2,0.5c-1.6,0.9-2.8,2.5-3.3,4.3s-0.2,3.7,0.7,5.3c1.3,2.3,3.7,3.5,6.1,3.5 c1.2,0,2.4-0.3,3.5-0.9c0.4-0.2,0.7-0.5,1.1-0.7l17.1,9.9C57,96.1,57,96.5,57,97c0,3.9,3.2,7,7,7c3.8,0,7-3.2,7-7 c0-0.4,0-0.9-0.1-1.3L88,85.8c1.2,1.1,2.8,1.7,4.6,1.7c3.9,0,7-3.2,7-7C99.6,77.4,97.6,74.8,94.9,73.9L94.9,73.9z M40,52.9l4.5,2.6 l-1.2,2c-0.3,0.5-0.4,1.2-0.2,1.8s0.6,1.1,1.1,1.4l3.4,2c0,0.4-0.1,0.9-0.1,1.3c0,0.4,0,0.9,0.1,1.3l-3.4,2 c-0.5,0.3-0.9,0.8-1.1,1.4c-0.2,0.6-0.1,1.2,0.2,1.8l1.2,2L40,75.1c-0.7-0.6-1.4-1-2.2-1.3V54.1C38.6,53.9,39.4,53.4,40,52.9z M85.6,48.8l-4.5,2.6l-1.2-2c-0.6-1.1-2.1-1.5-3.2-0.9l-3.4,2c-0.7-0.5-1.5-0.9-2.3-1.3v-3.9c0-1.3-1-2.3-2.3-2.3h-2.3v-5.2 c0.8-0.3,1.6-0.7,2.2-1.3l17.1,9.9c-0.1,0.4-0.1,0.8-0.1,1.3C85.5,48,85.6,48.4,85.6,48.8L85.6,48.8z M75.5,61.9 c0.1,0.8,0.2,1.5,0.2,2.1s-0.1,1.4-0.2,2.1c-0.2,1,0.3,2,1.1,2.5l2.7,1.6l-2.3,4l-2.7-1.6c-0.9-0.5-1.9-0.4-2.7,0.2 c-1.1,0.9-2.3,1.6-3.7,2.1c-0.9,0.3-1.6,1.2-1.6,2.2v3.2h-4.7v-3.2c0-1-0.6-1.9-1.6-2.2c-1.4-0.5-2.6-1.2-3.7-2.1 c-0.8-0.6-1.8-0.7-2.7-0.2L51,74.2l-2.3-4.1l2.7-1.6c0.9-0.5,1.3-1.5,1.1-2.5c-0.1-0.7-0.2-1.4-0.2-2.1c0-0.7,0.1-1.4,0.2-2.1 c0.2-1-0.3-2-1.1-2.5l-2.7-1.6l2.3-4.1l2.7,1.6c0.9,0.5,1.9,0.4,2.7-0.2c1.1-0.9,2.3-1.6,3.7-2.1c0.9-0.3,1.6-1.2,1.6-2.2v-3.2h4.7 v3.2c0,1,0.6,1.9,1.6,2.2c1.4,0.5,2.6,1.2,3.7,2.1c0.8,0.6,1.8,0.7,2.7,0.2l2.7-1.6l2.3,4.1l-2.7,1.6 C75.8,59.9,75.3,60.9,75.5,61.9L75.5,61.9z M61.7,42.9h-2.3c-1.3,0-2.3,1-2.3,2.3v3.9c-0.8,0.4-1.6,0.8-2.3,1.3l-3.4-2 c-1.1-0.6-2.6-0.3-3.2,0.9l-1.2,2l-4.5-2.6c0.1-0.4,0.1-0.8,0.1-1.3c0-0.4,0-0.9-0.1-1.3l17.1-9.9c0.6,0.6,1.4,1,2.2,1.3L61.7,42.9 L61.7,42.9z M42.4,79.2l4.5-2.6l1.2,2c0.6,1.1,2.1,1.5,3.2,0.9l3.4-2c0.7,0.5,1.5,0.9,2.3,1.3v3.9c0,1.3,1,2.3,2.3,2.3h2.3v5.2 c-0.8,0.3-1.6,0.7-2.2,1.3l-17.1-9.9C42.5,80.9,42.5,80.1,42.4,79.2L42.4,79.2z M66.3,85.1h2.3c1.3,0,2.3-1,2.3-2.3v-3.9 c0.8-0.4,1.6-0.8,2.3-1.3l3.4,2c1.1,0.6,2.6,0.3,3.2-0.9l1.2-2l4.5,2.6c-0.1,0.4-0.1,0.8-0.1,1.3s0,0.9,0.1,1.3l-17.1,9.9 c-0.6-0.6-1.4-1-2.2-1.3L66.3,85.1L66.3,85.1z M88,75.1l-4.5-2.6l1.2-2c0.3-0.5,0.4-1.2,0.2-1.8c-0.2-0.6-0.6-1.1-1.1-1.4l-3.4-2 c0-0.4,0.1-0.9,0.1-1.3s0-0.9-0.1-1.3l3.4-2c0.5-0.3,0.9-0.8,1.1-1.4c0.2-0.6,0.1-1.2-0.2-1.8l-1.2-2l4.5-2.6 c0.6,0.6,1.4,1,2.2,1.3v19.7C89.4,74.1,88.6,74.6,88,75.1L88,75.1z M92.6,45.2c1.3,0,2.3,1.1,2.3,2.3s-1.1,2.3-2.3,2.3 c-1.3,0-2.3-1.1-2.3-2.3S91.3,45.2,92.6,45.2z M64,28.7c1.3,0,2.3,1.1,2.3,2.3c0,1.3-1.1,2.3-2.3,2.3c-1.3,0-2.3-1.1-2.3-2.3 C61.7,29.7,62.7,28.7,64,28.7z M35.4,45.2c1.3,0,2.3,1.1,2.3,2.3s-1.1,2.3-2.3,2.3c-1.3,0-2.3-1.1-2.3-2.3S34.2,45.2,35.4,45.2z M36.6,82.5c-1.1,0.6-2.6,0.3-3.2-0.9c-0.3-0.5-0.4-1.2-0.2-1.8c0.2-0.6,0.5-1.1,1.1-1.4c0.4-0.2,0.8-0.3,1.2-0.3 c0.2,0,0.4,0,0.6,0.1c0.6,0.2,1.1,0.5,1.4,1.1C38.1,80.4,37.7,81.9,36.6,82.5L36.6,82.5z M64,99.3c-1.3,0-2.3-1.1-2.3-2.3 c0-1.3,1.1-2.3,2.3-2.3c1.3,0,2.3,1.1,2.3,2.3C66.3,98.3,65.3,99.3,64,99.3z M92.6,82.8c-1.3,0-2.3-1.1-2.3-2.3 c0-1.3,1.1-2.3,2.3-2.3c1.3,0,2.3,1.1,2.3,2.3C94.9,81.8,93.8,82.8,92.6,82.8z" class="st1"/><path d="M64,57c-3.9,0-7,3.2-7,7c0,3.8,3.2,7,7,7c3.8,0,7-3.2,7-7S67.9,57,64,57z M64,66.3c-1.3,0-2.3-1.1-2.3-2.3 c0-1.3,1.1-2.3,2.3-2.3c1.3,0,2.3,1.1,2.3,2.3C66.3,65.3,65.3,66.3,64,66.3z" class="st1"/></g></svg>