<?xml version="1.0" encoding="utf-8"?>
<!-- Generator: Adobe Illustrator 23.0.5, SVG Export Plug-In . SVG Version: 6.00 Build 0)  -->
<svg version="1.1" id="Capa_1" xmlns="http://www.w3.org/2000/svg" xmlns:xlink="http://www.w3.org/1999/xlink" x="0px" y="0px"
	 viewBox="0 0 360 360" style="enable-background:new 0 0 360 360;" xml:space="preserve">
<style type="text/css">
	.st0{fill:#6161FF;}
</style>
<g>
	<path class="st0" d="M303.1,0H56.9C25.5,0,0,25.5,0,56.9v246.2C0,334.5,25.5,360,56.9,360h246.2c31.4,0,56.9-25.5,56.9-56.9V56.9
		C360,25.5,334.5,0,303.1,0z M322.1,303.1c0,10.5-8.5,19-19,19H56.9c-10.5,0-19-8.5-19-19V56.9c0-10.5,8.5-19,19-19h246.2
		c10.5,0,19,8.5,19,19L322.1,303.1L322.1,303.1z"/>
	<path class="st0" d="M249.8,106.6c-6.1,0-11.9,2.4-16.2,6.7l-84.7,84.9l-22.6-22.6c-4.3-4.3-10.1-6.7-16.2-6.7
		c-6.1,0-11.9,2.4-16.2,6.7c-4.3,4.3-6.7,10.1-6.7,16.2s2.4,11.9,6.7,16.2l38.8,38.8c4.3,4.3,10.1,6.7,16.2,6.7
		c6.1,0,11.9-2.4,16.2-6.7l100.9-101c8.9-8.9,8.9-23.4,0-32.4C261.7,109,256,106.6,249.8,106.6z"/>
</g>
</svg>
