<?xml version="1.0" encoding="utf-8"?>
<!-- Generator: Adobe Illustrator 23.0.5, SVG Export Plug-In . SVG Version: 6.00 Build 0)  -->
<svg version="1.1" id="Layer_1" xmlns="http://www.w3.org/2000/svg" xmlns:xlink="http://www.w3.org/1999/xlink" x="0px" y="0px"
	 viewBox="0 0 128 128" style="enable-background:new 0 0 128 128;" xml:space="preserve">
<style type="text/css">
	.st0{fill:#4444C6;}
	.st1{fill:none;}
</style>
<g>
	<g>
		<path class="st0" d="M104,56.3c0-1.5-0.6-2.8-1.7-3.9L75.5,25.7c-2.2-2.2-5.7-2.2-8,0L25.7,67.5c-1.1,1.1-1.7,2.6-1.7,4.1
			s0.6,2.8,1.7,3.9l5.7,5.7c1,1,2.6,1.1,3.7,0.3c3.3-2.4,7.8-2.1,10.6,0.7c2.8,2.9,3.2,7.5,0.8,10.6c-0.9,1.1-0.7,2.7,0.3,3.7
			l5.7,5.7c1.1,1.1,2.5,1.7,4,1.7h0.1c1.5,0,2.8-0.6,3.9-1.7l41.8-41.8C103.4,59.4,104,57.9,104,56.3z M56.5,98.3l-4.2-4.2
			c2.5-5.1,1.6-11.6-2.6-15.9S39.1,73,33.8,75.6l-4.2-4.2l41.8-41.8l26.8,26.8L56.5,98.3z"/>
	</g>
</g>
<g>
	<g>
		<path class="st0" d="M58.9,37.9l1.3-1.3c0.8-0.7,2-0.7,2.7,0l4.6,4.6c0.7,0.8,0.7,2,0,2.7l-1.3,1.3c-0.8,0.7-2,0.7-2.7,0l-4.6-4.6
			C58.1,39.9,58.1,38.7,58.9,37.9z"/>
	</g>
</g>
<g>
	<g>
		<path class="st0" d="M82.8,62l1.3-1.3c0.7-0.8,2-0.8,2.7,0l4.6,4.6c0.8,0.7,0.8,2,0,2.7l-1.3,1.3c-0.7,0.8-2,0.8-2.7,0l-4.6-4.6
			C82.1,63.9,82.1,62.7,82.8,62z"/>
	</g>
</g>
<g>
	<g>
		<path class="st0" d="M70.8,49.9l1.3-1.3c0.7-0.7,2-0.7,2.7,0l4.6,4.6c0.7,0.7,0.7,2,0,2.7l-1.3,1.3c-0.7,0.7-2,0.7-2.7,0l-4.6-4.6
			C70.1,51.9,70.1,50.6,70.8,49.9z"/>
	</g>
</g>
<g>
	<path class="st0" d="M69,68.4c0.8,0.8,1.1,2,0.5,2.5c-0.6,0.6-1.7,0.3-2.5-0.5s-1.1-2-0.5-2.5C67,67.4,68.2,67.6,69,68.4z"/>
	<path class="st0" d="M64.6,72.9c0.8,0.8,1.1,2,0.5,2.5c-0.6,0.6-1.7,0.3-2.5-0.5s-1.1-2-0.5-2.5C62.6,71.8,63.7,72,64.6,72.9z"/>
	<path class="st0" d="M77,63.2L77,63.2v0.3c-0.8,0.8-1,1-1.1,1.1s-0.1,0.1-0.1,0.1c-0.1,0.1-0.3,0.3-1.3,1.3l-0.1,0.2L74.2,66
		c0,0-0.6-0.7-1.7-1.1c-0.6-0.3-1.3-0.4-1.9-0.5c-0.8,0-1.7,0.1-2.5,0.4c-1.7,0.7-2.9,1-4.1,1.2c-1.3,0.2-2.5,0.2-3.9-0.1
		c0.2,1.4,0.3,2.7,0.1,4C60,71.1,59.7,72.3,59,74c-0.3,0.8-0.5,1.7-0.4,2.5c0,0.7,0.2,1.3,0.5,1.9c0.5,1.1,1.1,1.7,1.1,1.7l0.2,0.1
		l-0.2,0.1c-1,1-1.2,1.2-1.3,1.3c0,0,0,0-0.1,0.1s-0.3,0.3-1.1,1.1L57.5,83l-0.1-0.1c-1.3-1.3-2.3-3.1-2.7-5s-0.2-3.8,0.5-5.4
		c0.3-0.7,0.6-1.4,0.7-2.2c0.1-0.6,0.2-1.2,0.2-1.8c0-1-0.1-1.7-0.1-1.7c-0.6-2.2-1.2-4.4-1.8-6.6c2.2,0.6,4.4,1.2,6.6,1.7
		c0,0,0.7,0.2,1.7,0.1c0.6,0,1.2-0.1,1.8-0.2c0.8-0.2,1.5-0.4,2.2-0.7c1.6-0.7,3.5-0.9,5.4-0.5C73.9,60.9,75.7,61.9,77,63.2z"/>
</g>
<rect class="st1" width="128" height="128"/>
</svg>
